<svg width="1058" height="351" xmlns="http://www.w3.org/2000/svg" xmlns:xlink="http://www.w3.org/1999/xlink" overflow="hidden"><g><rect x="0" y="0" width="1058" height="350.61" fill="#FFFFFF"/><g><path d="M181.5 3.5061 181.5 230.902M263.5 3.5061 263.5 230.902M344.5 3.5061 344.5 230.902M426.5 3.5061 426.5 230.902M507.5 3.5061 507.5 230.902" stroke="#D9D9D9" stroke-width="0.999685" stroke-linejoin="round" stroke-miterlimit="10" fill="none"/></g><g><path d="M159 219.381 100 219.381 100 204.355 159 204.355ZM166 181.315 100 181.315 100 166.289 166 166.289ZM164 143.249 100 143.249 100 128.223 164 128.223ZM172 106.185 100 106.185 100 91.1585 172 91.1585ZM180 68.1184 100 68.1184 100 53.0923 180 53.0923ZM296 30.0523 100 30.0523 100 15.0261 296 15.0261Z" fill="#70AD47"/></g><g><path d="M257 219.381 159 219.381 159 204.355 257 204.355ZM262 181.315 166 181.315 166 166.289 262 166.289ZM259 143.249 164 143.249 164 128.223 259 128.223ZM264 106.185 172 106.185 172 91.1585 264 91.1585ZM265 68.1184 180 68.1184 180 53.0923 265 53.0923ZM327 30.0523 296 30.0523 296 15.0261 327 15.0261Z" fill="#5B9BD5"/></g><g><path d="M259 219.381 257 219.381 257 204.355 259 204.355ZM264 181.315 262 181.315 262 166.289 264 166.289ZM261 143.249 259 143.249 259 128.223 261 128.223ZM267 106.185 264 106.185 264 91.1585 267 91.1585ZM274 68.1184 265 68.1184 265 53.0923 274 53.0923ZM349 30.0523 327 30.0523 327 15.0261 349 15.0261Z" fill="#FFC000"/></g><g><path d="M508 219.381 259 219.381 259 204.355 508 204.355ZM508 181.315 264 181.315 264 166.289 508 166.289ZM508 143.249 261 143.249 261 128.223 508 128.223ZM508 106.185 267 106.185 267 91.1585 508 91.1585ZM508 68.1184 274 68.1184 274 53.0923 508 53.0923ZM508 30.0523 349 30.0523 349 15.0261 508 15.0261Z" fill="#43682B"/></g><g><path d="M100 230.401 508 230.401" stroke="#000000" stroke-width="1.99937" stroke-linejoin="round" stroke-miterlimit="10" fill="none" fill-rule="evenodd"/></g><g><path d="M0 0 0.000104954 226" stroke="#000000" stroke-width="1.99937" stroke-linejoin="round" stroke-miterlimit="10" fill="none" fill-rule="evenodd" transform="matrix(1 0 0 -1.00174 100 230.401)"/></g><g><path d="M108.5 203.855C108.5 201.642 110.291 199.848 112.5 199.848L146.5 199.848C148.709 199.848 150.5 201.642 150.5 203.855L150.5 219.882C150.5 222.095 148.709 223.889 146.5 223.889L112.5 223.889C110.291 223.889 108.5 222.095 108.5 219.882Z" stroke="#BFBFBF" stroke-width="0.999685" stroke-linejoin="round" stroke-miterlimit="10" fill="#FFFFFF" fill-rule="evenodd"/></g><g><g><text fill="#595959" font-family="Arial,Arial_MSFontService,sans-serif" font-weight="700" font-size="16" transform="matrix(1 0 0 1.00174 114.119 218)">14.6</text></g></g><g><path d="M112.5 165.955C112.5 163.65 114.366 161.781 116.667 161.781L149.333 161.781C151.634 161.781 153.5 163.65 153.5 165.955L153.5 182.651C153.5 184.956 151.634 186.825 149.333 186.825L116.667 186.825C114.366 186.825 112.5 184.956 112.5 182.651Z" stroke="#BFBFBF" stroke-width="0.999685" stroke-linejoin="round" stroke-miterlimit="10" fill="#FFFFFF" fill-rule="evenodd"/></g><g><g><text fill="#595959" font-family="Arial,Arial_MSFontService,sans-serif" font-weight="700" font-size="16" transform="matrix(1 0 0 1.00174 117.383 180)">16.2</text></g></g><g><path d="M111.5 127.889C111.5 125.584 113.366 123.715 115.667 123.715L148.333 123.715C150.634 123.715 152.5 125.584 152.5 127.889L152.5 144.585C152.5 146.89 150.634 148.759 148.333 148.759L115.667 148.759C113.366 148.759 111.5 146.89 111.5 144.585Z" stroke="#BFBFBF" stroke-width="0.999685" stroke-linejoin="round" stroke-miterlimit="10" fill="#FFFFFF" fill-rule="evenodd"/></g><g><g><text fill="#595959" font-family="Arial,Arial_MSFontService,sans-serif" font-weight="700" font-size="16" transform="matrix(1 0 0 1.00174 116.567 142)">15.8</text></g></g><g><path d="M115.5 89.823C115.5 87.5177 117.366 85.6489 119.667 85.6489L152.333 85.6489C154.634 85.6489 156.5 87.5177 156.5 89.823L156.5 106.518C156.5 108.824 154.634 110.692 152.333 110.692L119.667 110.692C117.366 110.692 115.5 108.824 115.5 106.518Z" stroke="#BFBFBF" stroke-width="0.999685" stroke-linejoin="round" stroke-miterlimit="10" fill="#FFFFFF" fill-rule="evenodd"/></g><g><g><text fill="#595959" font-family="Arial,Arial_MSFontService,sans-serif" font-weight="700" font-size="16" transform="matrix(1 0 0 1.00174 120.238 104)">17.6</text></g></g><g><path d="M119.5 51.7568C119.5 49.4515 121.366 47.5827 123.667 47.5827L156.333 47.5827C158.634 47.5827 160.5 49.4515 160.5 51.7568L160.5 68.4523C160.5 70.7575 158.634 72.6263 156.333 72.6263L123.667 72.6263C121.366 72.6263 119.5 70.7575 119.5 68.4523Z" stroke="#BFBFBF" stroke-width="0.999685" stroke-linejoin="round" stroke-miterlimit="10" fill="#FFFFFF" fill-rule="evenodd"/></g><g><g><text fill="#595959" font-family="Arial,Arial_MSFontService,sans-serif" font-weight="700" font-size="16" transform="matrix(1 0 0 1.00174 124.317 66)">19.6</text></g></g><g><path d="M177.5 14.5253C177.5 12.3123 179.291 10.5183 181.5 10.5183L214.5 10.5183C216.709 10.5183 218.5 12.3123 218.5 14.5253L218.5 30.5531C218.5 32.7661 216.709 34.5601 214.5 34.5601L181.5 34.5601C179.291 34.5601 177.5 32.7661 177.5 30.5531Z" stroke="#BFBFBF" stroke-width="0.999685" stroke-linejoin="round" stroke-miterlimit="10" fill="#FFFFFF" fill-rule="evenodd"/></g><g><g><text fill="#595959" font-family="Arial,Arial_MSFontService,sans-serif" font-weight="700" font-size="16" transform="matrix(1 0 0 1.00174 182.646 28)">48.2</text></g></g><g><path d="M194.5 203.855C194.5 201.642 196.291 199.848 198.5 199.848L218.5 199.848C220.709 199.848 222.5 201.642 222.5 203.855L222.5 219.882C222.5 222.095 220.709 223.889 218.5 223.889L198.5 223.889C196.291 223.889 194.5 222.095 194.5 219.882Z" stroke="#BFBFBF" stroke-width="0.999685" stroke-linejoin="round" stroke-miterlimit="10" fill="#FFFFFF" fill-rule="evenodd"/></g><g><g><text fill="#595959" font-family="Arial,Arial_MSFontService,sans-serif" font-weight="700" font-size="16" transform="matrix(1 0 0 1.00174 199.495 218)">24</text></g></g><g><path d="M193.5 165.955C193.5 163.65 195.366 161.781 197.667 161.781L230.333 161.781C232.634 161.781 234.5 163.65 234.5 165.955L234.5 182.651C234.5 184.956 232.634 186.825 230.333 186.825L197.667 186.825C195.366 186.825 193.5 184.956 193.5 182.651Z" stroke="#BFBFBF" stroke-width="0.999685" stroke-linejoin="round" stroke-miterlimit="10" fill="#FFFFFF" fill-rule="evenodd"/></g><g><g><text fill="#595959" font-family="Arial,Arial_MSFontService,sans-serif" font-weight="700" font-size="16" transform="matrix(1 0 0 1.00174 198.554 180)">23.6</text></g></g><g><path d="M190.5 127.889C190.5 125.584 192.365 123.715 194.667 123.715L228.333 123.715C230.634 123.715 232.5 125.584 232.5 127.889L232.5 144.585C232.5 146.89 230.634 148.759 228.333 148.759L194.667 148.759C192.365 148.759 190.5 146.89 190.5 144.585Z" stroke="#BFBFBF" stroke-width="0.999685" stroke-linejoin="round" stroke-miterlimit="10" fill="#FFFFFF" fill-rule="evenodd"/></g><g><g><text fill="#595959" font-family="Arial,Arial_MSFontService,sans-serif" font-weight="700" font-size="16" transform="matrix(1 0 0 1.00174 196.106 142)">23.2</text></g></g><g><path d="M197.5 89.823C197.5 87.5177 199.366 85.6489 201.667 85.6489L234.333 85.6489C236.634 85.6489 238.5 87.5177 238.5 89.823L238.5 106.518C238.5 108.824 236.634 110.692 234.333 110.692L201.667 110.692C199.366 110.692 197.5 108.824 197.5 106.518Z" stroke="#BFBFBF" stroke-width="0.999685" stroke-linejoin="round" stroke-miterlimit="10" fill="#FFFFFF" fill-rule="evenodd"/></g><g><g><text fill="#595959" font-family="Arial,Arial_MSFontService,sans-serif" font-weight="700" font-size="16" transform="matrix(1 0 0 1.00174 202.225 104)">22.6</text></g></g><g><path d="M208.5 51.7567C208.5 49.4515 210.365 47.5827 212.667 47.5827L232.333 47.5827C234.634 47.5827 236.5 49.4515 236.5 51.7567L236.5 68.4523C236.5 70.7575 234.634 72.6263 232.333 72.6263L212.667 72.6263C210.365 72.6263 208.5 70.7575 208.5 68.4523Z" stroke="#BFBFBF" stroke-width="0.999685" stroke-linejoin="round" stroke-miterlimit="10" fill="#FFFFFF" fill-rule="evenodd"/></g><g><g><text fill="#595959" font-family="Arial,Arial_MSFontService,sans-serif" font-weight="700" font-size="16" transform="matrix(1 0 0 1.00174 213.771 66)">21</text></g></g><g><path d="M359 200.682C359 197.732 361.388 195.34 364.333 195.34L401.667 195.34C404.612 195.34 407 197.732 407 200.682L407 222.053C407 225.003 404.612 227.395 401.667 227.395L364.333 227.395C361.388 227.395 359 225.003 359 222.053Z" stroke="#C00000" stroke-width="3.99874" stroke-linejoin="round" stroke-miterlimit="10" fill="#FFFFFF" fill-rule="evenodd"/></g><g><g><text fill="#C00000" font-family="Arial,Arial_MSFontService,sans-serif" font-weight="700" font-size="21" transform="matrix(1 0 0 1.00174 371.489 220)">61</text></g></g><g><path d="M364.5 165.955C364.5 163.65 366.365 161.781 368.667 161.781L402.333 161.781C404.634 161.781 406.5 163.65 406.5 165.955L406.5 182.651C406.5 184.956 404.634 186.825 402.333 186.825L368.667 186.825C366.365 186.825 364.5 184.956 364.5 182.651Z" stroke="#BFBFBF" stroke-width="0.999685" stroke-linejoin="round" stroke-miterlimit="10" fill="#FFFFFF" fill-rule="evenodd"/></g><g><g><text fill="#595959" font-family="Arial,Arial_MSFontService,sans-serif" font-weight="700" font-size="16" transform="matrix(1 0 0 1.00174 370.278 180)">59.8</text></g></g><g><path d="M363.5 127.889C363.5 125.584 365.365 123.715 367.667 123.715L401.333 123.715C403.634 123.715 405.5 125.584 405.5 127.889L405.5 144.585C405.5 146.89 403.634 148.759 401.333 148.759L367.667 148.759C365.365 148.759 363.5 146.89 363.5 144.585Z" stroke="#BFBFBF" stroke-width="0.999685" stroke-linejoin="round" stroke-miterlimit="10" fill="#FFFFFF" fill-rule="evenodd"/></g><g><g><text fill="#595959" font-family="Arial,Arial_MSFontService,sans-serif" font-weight="700" font-size="16" transform="matrix(1 0 0 1.00174 368.646 142)">60.6</text></g></g><g><path d="M373.5 89.8229C373.5 87.5177 375.365 85.6489 377.667 85.6489L397.333 85.6489C399.634 85.6489 401.5 87.5177 401.5 89.8229L401.5 106.518C401.5 108.824 399.634 110.692 397.333 110.692L377.667 110.692C375.365 110.692 373.5 108.824 373.5 106.518Z" stroke="#BFBFBF" stroke-width="0.999685" stroke-linejoin="round" stroke-miterlimit="10" fill="#FFFFFF" fill-rule="evenodd"/></g><g><g><text fill="#595959" font-family="Arial,Arial_MSFontService,sans-serif" font-weight="700" font-size="16" transform="matrix(1 0 0 1.00174 378.56 104)">59</text></g></g><g><path d="M369.5 51.7567C369.5 49.4515 371.365 47.5827 373.667 47.5827L407.333 47.5827C409.634 47.5827 411.5 49.4515 411.5 51.7567L411.5 68.4523C411.5 70.7575 409.634 72.6263 407.333 72.6263L373.667 72.6263C371.365 72.6263 369.5 70.7575 369.5 68.4523Z" stroke="#BFBFBF" stroke-width="0.999685" stroke-linejoin="round" stroke-miterlimit="10" fill="#FFFFFF" fill-rule="evenodd"/></g><g><g><text fill="#595959" font-family="Arial,Arial_MSFontService,sans-serif" font-weight="700" font-size="16" transform="matrix(1 0 0 1.00174 375.172 66)">57.4</text></g></g><g><path d="M414.5 14.6923C414.5 12.3871 416.365 10.5183 418.667 10.5183L438.333 10.5183C440.634 10.5183 442.5 12.3871 442.5 14.6923L442.5 31.3878C442.5 33.6931 440.634 35.5618 438.333 35.5618L418.667 35.5618C416.365 35.5618 414.5 33.6931 414.5 31.3878Z" stroke="#BFBFBF" stroke-width="0.999685" stroke-linejoin="round" stroke-miterlimit="10" fill="#FFFFFF" fill-rule="evenodd"/></g><g><g><text fill="#595959" font-family="Arial,Arial_MSFontService,sans-serif" font-weight="700" font-size="16" transform="matrix(1 0 0 1.00174 419.35 28)">39</text></g></g><g><text font-family="Arial,Arial_MSFontService,sans-serif" font-weight="700" font-size="16" transform="matrix(1 0 0 1.00174 88.3353 255)">0%</text></g><g><text font-family="Arial,Arial_MSFontService,sans-serif" font-weight="700" font-size="16" transform="matrix(1 0 0 1.00174 165.479 255)">20%</text></g><g><text font-family="Arial,Arial_MSFontService,sans-serif" font-weight="700" font-size="16" transform="matrix(1 0 0 1.00174 247.058 255)">40%</text></g><g><text font-family="Arial,Arial_MSFontService,sans-serif" font-weight="700" font-size="16" transform="matrix(1 0 0 1.00174 328.637 255)">60%</text></g><g><text font-family="Arial,Arial_MSFontService,sans-serif" font-weight="700" font-size="16" transform="matrix(1 0 0 1.00174 410.216 255)">80%</text></g><g><text font-family="Arial,Arial_MSFontService,sans-serif" font-weight="700" font-size="16" transform="matrix(1 0 0 1.00174 487.36 255)">100%</text></g><g><text font-family="Arial,Arial_MSFontService,sans-serif" font-weight="700" font-size="16" transform="matrix(1 0 0 1.00174 28.4849 217)">0.00001</text></g><g><text font-family="Arial,Arial_MSFontService,sans-serif" font-weight="700" font-size="16" transform="matrix(1 0 0 1.00174 63.9672 179)">0.5</text></g><g><text font-family="Arial,Arial_MSFontService,sans-serif" font-weight="700" font-size="16" transform="matrix(1 0 0 1.00174 63.9672 141)">0.7</text></g><g><text font-family="Arial,Arial_MSFontService,sans-serif" font-weight="700" font-size="16" transform="matrix(1 0 0 1.00174 77.2698 103)">1</text></g><g><text font-family="Arial,Arial_MSFontService,sans-serif" font-weight="700" font-size="16" transform="matrix(1 0 0 1.00174 63.9672 65)">1.5</text></g><g><text font-family="Arial,Arial_MSFontService,sans-serif" font-weight="700" font-size="16" transform="matrix(1 0 0 1.00174 28.4849 27)">1.99999</text></g><g><text font-family="Arial,Arial_MSFontService,sans-serif" font-weight="700" font-size="18" transform="matrix(1 0 0 1.00174 230.486 282)">Percentage</text></g><g><text font-family="Arial,Arial_MSFontService,sans-serif" font-weight="700" font-size="18" transform="matrix(6.12323e-17 -1.00349 0.998261 6.1339e-17 21.0939 171)">Temperature</text></g><g><rect x="154" y="298.519" width="8" height="8.01395" fill="#70AD47"/></g><g><g><text font-family="Arial,Arial_MSFontService,sans-serif" font-weight="700" font-size="16" transform="matrix(1 0 0 1.00174 165.894 309)">T1 (↓)</text></g></g><g><rect x="221" y="298.519" width="8" height="8.01395" fill="#5B9BD5"/></g><g><g><text font-family="Arial,Arial_MSFontService,sans-serif" font-weight="700" font-size="16" transform="matrix(1 0 0 1.00174 232.81 309)">T2 (↓)</text></g></g><g><rect x="288" y="298.519" width="8" height="8.01395" fill="#FFC000"/></g><g><g><text font-family="Arial,Arial_MSFontService,sans-serif" font-weight="700" font-size="16" transform="matrix(1 0 0 1.00174 299.726 309)">T3 (↓)</text></g></g><g><rect x="355" y="298.519" width="8" height="8.01395" fill="#43682B"/></g><g><g><text font-family="Arial,Arial_MSFontService,sans-serif" font-weight="700" font-size="16" transform="matrix(1 0 0 1.00174 366.641 309)">T4 (↑)</text></g></g><g><path d="M706.5 3.5061 706.5 230.902M788.5 3.5061 788.5 230.902M869.5 3.5061 869.5 230.902M951.5 3.5061 951.5 230.902M1032.5 3.5061 1032.5 230.902" stroke="#D9D9D9" stroke-width="0.999685" stroke-linejoin="round" stroke-miterlimit="10" fill="none"/></g><g><path d="M686 217.378 625 217.378 625 199.347 686 199.347ZM689 171.298 625 171.298 625 153.267 689 153.267ZM693 126.219 625 126.219 625 108.188 693 108.188ZM691 81.1411 625 81.1411 625 63.1097 691 63.1097ZM697 35.061 625 35.061 625 17.0296 697 17.0296Z" fill="#70AD47"/></g><g><path d="M783 217.378 686 217.378 686 199.347 783 199.347ZM785 171.298 689 171.298 689 153.267 785 153.267ZM785 126.219 693 126.219 693 108.188 785 108.188ZM786 81.1411 691 81.1411 691 63.1097 786 63.1097ZM789 35.061 697 35.061 697 17.0296 789 17.0296Z" fill="#5B9BD5"/></g><g><path d="M783 217.378 784 217.378 784 199.347 783 199.347ZM787 171.298 785 171.298 785 153.267 787 153.267ZM788 126.219 785 126.219 785 108.188 788 108.188ZM791 81.1411 786 81.1411 786 63.1097 791 63.1097ZM792 35.061 789 35.061 789 17.0296 792 17.0296Z" fill="#FFC000"/></g><g><path d="M1033 217.378 784 217.378 784 199.347 1033 199.347ZM1033 171.298 787 171.298 787 153.267 1033 153.267ZM1033 126.219 788 126.219 788 108.188 1033 108.188ZM1033 81.1411 791 81.1411 791 63.1097 1033 63.1097ZM1033 35.061 792 35.061 792 17.0296 1033 17.0296Z" fill="#43682B"/></g><g><path d="M625 230.401 1033 230.401" stroke="#000000" stroke-width="1.99937" stroke-linejoin="round" stroke-miterlimit="10" fill="none" fill-rule="evenodd"/></g><g><path d="M0 0 0.000104954 226" stroke="#000000" stroke-width="1.99937" stroke-linejoin="round" stroke-miterlimit="10" fill="none" fill-rule="evenodd" transform="matrix(1 0 0 -1.00174 625 230.401)"/></g><g><path d="M641.5 200.015C641.5 197.709 643.366 195.841 645.667 195.841L665.333 195.841C667.635 195.841 669.5 197.709 669.5 200.015L669.5 216.71C669.5 219.015 667.635 220.884 665.333 220.884L645.667 220.884C643.366 220.884 641.5 219.015 641.5 216.71Z" stroke="#BFBFBF" stroke-width="0.999685" stroke-linejoin="round" stroke-miterlimit="10" fill="#FFFFFF" fill-rule="evenodd"/></g><g><g><text fill="#595959" font-family="Arial,Arial_MSFontService,sans-serif" font-weight="700" font-size="16" transform="matrix(1 0 0 1.00174 646.662 214)">15</text></g></g><g><path d="M636.5 153.934C636.5 151.629 638.366 149.76 640.667 149.76L673.333 149.76C675.635 149.76 677.5 151.629 677.5 153.934L677.5 170.63C677.5 172.935 675.635 174.804 673.333 174.804L640.667 174.804C638.366 174.804 636.5 172.935 636.5 170.63Z" stroke="#BFBFBF" stroke-width="0.999685" stroke-linejoin="round" stroke-miterlimit="10" fill="#FFFFFF" fill-rule="evenodd"/></g><g><g><text fill="#595959" font-family="Arial,Arial_MSFontService,sans-serif" font-weight="700" font-size="16" transform="matrix(1 0 0 1.00174 641.234 169)">15.6</text></g></g><g><path d="M638.5 108.856C638.5 106.551 640.366 104.682 642.667 104.682L675.333 104.682C677.635 104.682 679.5 106.551 679.5 108.856L679.5 125.552C679.5 127.857 677.635 129.726 675.333 129.726L642.667 129.726C640.366 129.726 638.5 127.857 638.5 125.552Z" stroke="#BFBFBF" stroke-width="0.999685" stroke-linejoin="round" stroke-miterlimit="10" fill="#FFFFFF" fill-rule="evenodd"/></g><g><g><text fill="#595959" font-family="Arial,Arial_MSFontService,sans-serif" font-weight="700" font-size="16" transform="matrix(1 0 0 1.00174 643.273 123)">16.6</text></g></g><g><path d="M637.5 63.7777C637.5 61.4724 639.366 59.6036 641.667 59.6036L674.333 59.6036C676.635 59.6036 678.5 61.4724 678.5 63.7777L678.5 80.4732C678.5 82.7784 676.635 84.6472 674.333 84.6472L641.667 84.6472C639.366 84.6472 637.5 82.7784 637.5 80.4732Z" stroke="#BFBFBF" stroke-width="0.999685" stroke-linejoin="round" stroke-miterlimit="10" fill="#FFFFFF" fill-rule="evenodd"/></g><g><g><text fill="#595959" font-family="Arial,Arial_MSFontService,sans-serif" font-weight="700" font-size="16" transform="matrix(1 0 0 1.00174 642.458 78)">16.2</text></g></g><g><path d="M640.5 17.6975C640.5 15.3923 642.366 13.5235 644.667 13.5235L677.333 13.5235C679.635 13.5235 681.5 15.3923 681.5 17.6975L681.5 34.393C681.5 36.6983 679.635 38.5671 677.333 38.5671L644.667 38.5671C642.366 38.5671 640.5 36.6983 640.5 34.393Z" stroke="#BFBFBF" stroke-width="0.999685" stroke-linejoin="round" stroke-miterlimit="10" fill="#FFFFFF" fill-rule="evenodd"/></g><g><g><text fill="#595959" font-family="Arial,Arial_MSFontService,sans-serif" font-weight="700" font-size="16" transform="matrix(1 0 0 1.00174 645.313 32)">17.6</text></g></g><g><path d="M713.5 200.015C713.5 197.709 715.366 195.841 717.667 195.841L751.333 195.841C753.635 195.841 755.5 197.709 755.5 200.015L755.5 216.71C755.5 219.015 753.635 220.884 751.333 220.884L717.667 220.884C715.366 220.884 713.5 219.015 713.5 216.71Z" stroke="#BFBFBF" stroke-width="0.999685" stroke-linejoin="round" stroke-miterlimit="10" fill="#FFFFFF" fill-rule="evenodd"/></g><g><g><text fill="#595959" font-family="Arial,Arial_MSFontService,sans-serif" font-weight="700" font-size="16" transform="matrix(1 0 0 1.00174 719.142 214)">23.8</text></g></g><g><path d="M716.5 153.934C716.5 151.629 718.366 149.76 720.667 149.76L753.333 149.76C755.635 149.76 757.5 151.629 757.5 153.934L757.5 170.63C757.5 172.935 755.635 174.804 753.333 174.804L720.667 174.804C718.366 174.804 716.5 172.935 716.5 170.63Z" stroke="#BFBFBF" stroke-width="0.999685" stroke-linejoin="round" stroke-miterlimit="10" fill="#FFFFFF" fill-rule="evenodd"/></g><g><g><text fill="#595959" font-family="Arial,Arial_MSFontService,sans-serif" font-weight="700" font-size="16" transform="matrix(1 0 0 1.00174 721.181 169)">23.6</text></g></g><g><path d="M718.5 108.856C718.5 106.551 720.366 104.682 722.667 104.682L755.333 104.682C757.635 104.682 759.5 106.551 759.5 108.856L759.5 125.552C759.5 127.857 757.635 129.726 755.333 129.726L722.667 129.726C720.366 129.726 718.5 127.857 718.5 125.552Z" stroke="#BFBFBF" stroke-width="0.999685" stroke-linejoin="round" stroke-miterlimit="10" fill="#FFFFFF" fill-rule="evenodd"/></g><g><g><text fill="#595959" font-family="Arial,Arial_MSFontService,sans-serif" font-weight="700" font-size="16" transform="matrix(1 0 0 1.00174 723.221 123)">22.6</text></g></g><g><path d="M717.5 63.7777C717.5 61.4724 719.366 59.6036 721.667 59.6036L755.333 59.6036C757.635 59.6036 759.5 61.4724 759.5 63.7777L759.5 80.4732C759.5 82.7784 757.635 84.6472 755.333 84.6472L721.667 84.6472C719.366 84.6472 717.5 82.7784 717.5 80.4732Z" stroke="#BFBFBF" stroke-width="0.999685" stroke-linejoin="round" stroke-miterlimit="10" fill="#FFFFFF" fill-rule="evenodd"/></g><g><g><text fill="#595959" font-family="Arial,Arial_MSFontService,sans-serif" font-weight="700" font-size="16" transform="matrix(1 0 0 1.00174 722.813 78)">23.2</text></g></g><g><path d="M722.5 17.6975C722.5 15.3923 724.366 13.5235 726.667 13.5235L759.333 13.5235C761.635 13.5235 763.5 15.3923 763.5 17.6975L763.5 34.393C763.5 36.6983 761.635 38.5671 759.333 38.5671L726.667 38.5671C724.366 38.5671 722.5 36.6983 722.5 34.393Z" stroke="#BFBFBF" stroke-width="0.999685" stroke-linejoin="round" stroke-miterlimit="10" fill="#FFFFFF" fill-rule="evenodd"/></g><g><g><text fill="#595959" font-family="Arial,Arial_MSFontService,sans-serif" font-weight="700" font-size="16" transform="matrix(1 0 0 1.00174 727.3 32)">22.6</text></g></g><g><path d="M886 197.51C886 194.652 888.313 192.334 891.167 192.334L925.833 192.334C928.687 192.334 931 194.652 931 197.51L931 218.213C931 221.071 928.687 223.388 925.833 223.388L891.167 223.388C888.313 223.388 886 221.071 886 218.213Z" stroke="#C00000" stroke-width="3.99874" stroke-linejoin="round" stroke-miterlimit="10" fill="#FFFFFF" fill-rule="evenodd"/></g><g><g><text fill="#C00000" font-family="Arial,Arial_MSFontService,sans-serif" font-weight="700" font-size="21" transform="matrix(1 0 0 1.00174 896.564 216)">61</text></g></g><g><path d="M889.5 153.934C889.5 151.629 891.366 149.76 893.667 149.76L926.333 149.76C928.634 149.76 930.5 151.629 930.5 153.934L930.5 170.63C930.5 172.935 928.634 174.804 926.333 174.804L893.667 174.804C891.366 174.804 889.5 172.935 889.5 170.63Z" stroke="#BFBFBF" stroke-width="0.999685" stroke-linejoin="round" stroke-miterlimit="10" fill="#FFFFFF" fill-rule="evenodd"/></g><g><g><text fill="#595959" font-family="Arial,Arial_MSFontService,sans-serif" font-weight="700" font-size="16" transform="matrix(1 0 0 1.00174 894.537 169)">60.2</text></g></g><g><path d="M896.5 108.856C896.5 106.551 898.366 104.682 900.667 104.682L920.333 104.682C922.634 104.682 924.5 106.551 924.5 108.856L924.5 125.552C924.5 127.857 922.634 129.726 920.333 129.726L900.667 129.726C898.366 129.726 896.5 127.857 896.5 125.552Z" stroke="#BFBFBF" stroke-width="0.999685" stroke-linejoin="round" stroke-miterlimit="10" fill="#FFFFFF" fill-rule="evenodd"/></g><g><g><text fill="#595959" font-family="Arial,Arial_MSFontService,sans-serif" font-weight="700" font-size="16" transform="matrix(1 0 0 1.00174 901.596 123)">60</text></g></g><g><path d="M891.5 63.7777C891.5 61.4724 893.366 59.6036 895.667 59.6036L928.333 59.6036C930.634 59.6036 932.5 61.4724 932.5 63.7777L932.5 80.4732C932.5 82.7784 930.634 84.6472 928.333 84.6472L895.667 84.6472C893.366 84.6472 891.5 82.7784 891.5 80.4732Z" stroke="#BFBFBF" stroke-width="0.999685" stroke-linejoin="round" stroke-miterlimit="10" fill="#FFFFFF" fill-rule="evenodd"/></g><g><g><text fill="#595959" font-family="Arial,Arial_MSFontService,sans-serif" font-weight="700" font-size="16" transform="matrix(1 0 0 1.00174 896.576 78)">59.2</text></g></g><g><path d="M898.5 17.6975C898.5 15.3923 900.366 13.5235 902.667 13.5235L922.333 13.5235C924.634 13.5235 926.5 15.3923 926.5 17.6975L926.5 34.3931C926.5 36.6983 924.634 38.5671 922.333 38.5671L902.667 38.5671C900.366 38.5671 898.5 36.6983 898.5 34.3931Z" stroke="#BFBFBF" stroke-width="0.999685" stroke-linejoin="round" stroke-miterlimit="10" fill="#FFFFFF" fill-rule="evenodd"/></g><g><g><text fill="#595959" font-family="Arial,Arial_MSFontService,sans-serif" font-weight="700" font-size="16" transform="matrix(1 0 0 1.00174 903.636 32)">59</text></g></g><g><text font-family="Arial,Arial_MSFontService,sans-serif" font-weight="700" font-size="16" transform="matrix(1 0 0 1.00174 613.41 255)">0%</text></g><g><text font-family="Arial,Arial_MSFontService,sans-serif" font-weight="700" font-size="16" transform="matrix(1 0 0 1.00174 690.554 255)">20%</text></g><g><text font-family="Arial,Arial_MSFontService,sans-serif" font-weight="700" font-size="16" transform="matrix(1 0 0 1.00174 772.133 255)">40%</text></g><g><text font-family="Arial,Arial_MSFontService,sans-serif" font-weight="700" font-size="16" transform="matrix(1 0 0 1.00174 853.712 255)">60%</text></g><g><text font-family="Arial,Arial_MSFontService,sans-serif" font-weight="700" font-size="16" transform="matrix(1 0 0 1.00174 935.291 255)">80%</text></g><g><text font-family="Arial,Arial_MSFontService,sans-serif" font-weight="700" font-size="16" transform="matrix(1 0 0 1.00174 1012.43 255)">100%</text></g><g><text font-family="Arial,Arial_MSFontService,sans-serif" font-weight="700" font-size="16" transform="matrix(1 0 0 1.00174 553.56 213)">0.00001</text></g><g><text font-family="Arial,Arial_MSFontService,sans-serif" font-weight="700" font-size="16" transform="matrix(1 0 0 1.00174 589.042 167)">0.5</text></g><g><text font-family="Arial,Arial_MSFontService,sans-serif" font-weight="700" font-size="16" transform="matrix(1 0 0 1.00174 589.042 122)">0.7</text></g><g><text font-family="Arial,Arial_MSFontService,sans-serif" font-weight="700" font-size="16" transform="matrix(1 0 0 1.00174 589.042 77)">0.9</text></g><g><text font-family="Arial,Arial_MSFontService,sans-serif" font-weight="700" font-size="16" transform="matrix(1 0 0 1.00174 602.345 31)">1</text></g><g><text font-family="Arial,Arial_MSFontService,sans-serif" font-weight="700" font-size="18" transform="matrix(1 0 0 1.00174 756.894 282)">Percentage</text></g><g><text font-family="Arial,Arial_MSFontService,sans-serif" font-weight="700" font-size="18" transform="matrix(6.12323e-17 -1.00349 0.998261 6.1339e-17 546.169 141)">Top</text></g><g><text font-family="Arial,Arial_MSFontService,sans-serif" font-weight="700" font-size="18" transform="matrix(6.12323e-17 -1.00349 0.998261 6.1339e-17 546.169 110)">-</text></g><g><text font-family="Arial,Arial_MSFontService,sans-serif" font-weight="700" font-size="18" transform="matrix(6.12323e-17 -1.00349 0.998261 6.1339e-17 546.169 104)">p</text></g><g><rect x="681" y="297.517" width="8" height="8.01395" fill="#70AD47"/></g><g><g><text font-family="Arial,Arial_MSFontService,sans-serif" font-weight="700" font-size="16" transform="matrix(1 0 0 1.00174 692.302 308)">T1 (↓)</text></g></g><g><rect x="748" y="297.517" width="8" height="8.01395" fill="#5B9BD5"/></g><g><g><text font-family="Arial,Arial_MSFontService,sans-serif" font-weight="700" font-size="16" transform="matrix(1 0 0 1.00174 759.218 308)">T2 (↓)</text></g></g><g><rect x="815" y="297.517" width="8" height="8.01395" fill="#FFC000"/></g><g><g><text font-family="Arial,Arial_MSFontService,sans-serif" font-weight="700" font-size="16" transform="matrix(1 0 0 1.00174 826.134 308)">T3 (↓)</text></g></g><g><rect x="882" y="297.517" width="8" height="8.01395" fill="#43682B"/></g><g><g><text font-family="Arial,Arial_MSFontService,sans-serif" font-weight="700" font-size="16" transform="matrix(1 0 0 1.00174 893.049 308)">T4 (↑)</text></g></g><text font-family="Arial,Arial_MSFontService,sans-serif" font-weight="700" font-size="19" transform="matrix(1 0 0 1.00174 267.192 346)">(a)</text><text font-family="Arial,Arial_MSFontService,sans-serif" font-weight="700" font-size="19" transform="matrix(1 0 0 1.00174 793.117 346)">(b)</text></g></svg>