<svg width="1280" height="531" xmlns="http://www.w3.org/2000/svg" xmlns:xlink="http://www.w3.org/1999/xlink" overflow="hidden"><g><rect x="0" y="0" width="1280" height="531" fill="#FFFFFF"/><g><path d="M95.5001 333.5 1265.5 333.5M95.5001 298.5 1265.5 298.5M95.5001 263.5 1265.5 263.5M95.5001 227.5 1265.5 227.5M95.5001 192.5 1265.5 192.5M95.5001 156.5 1265.5 156.5M95.5001 121.5 1265.5 121.5M95.5001 86.5001 1265.5 86.5001M95.5001 50.5001 1265.5 50.5001M95.5001 15.5001 1265.5 15.5001" stroke="#D9D9D9" stroke-linejoin="round" stroke-miterlimit="10" fill="none"/></g><g><path d="M111 77 131 77 131 369 111 369ZM162 93 182 93 182 369 162 369ZM213 59 233 59 233 369 213 369ZM263 57 284 57 284 369 263 369ZM314 83 335 83 335 369 314 369ZM365 63 385 63 385 369 365 369ZM416 91 436 91 436 369 416 369ZM467 16 487 16 487 369 467 369ZM518 120 538 120 538 369 518 369ZM569 110 589 110 589 369 569 369ZM619 37 640 37 640 369 619 369ZM670 198 691 198 691 369 670 369ZM721 16 741 16 741 369 721 369ZM772 124 792 124 792 369 772 369ZM823 163 843 163 843 369 823 369ZM874 153 894 153 894 369 874 369ZM925 42 945 42 945 369 925 369ZM975 356 996 356 996 369 975 369ZM1026 32 1047 32 1047 369 1026 369ZM1077 239 1098 239 1098 369 1077 369ZM1128 37 1148 37 1148 369 1128 369ZM1179 62 1199 62 1199 369 1179 369ZM1230 106 1250 106 1250 369 1230 369Z" fill="#70AD47"/></g><g><path d="M111 68 131 68 131 77 111 77ZM162 86 182 86 182 93 162 93ZM213 57 233 57 233 59 213 59ZM263 52 284 52 284 57 263 57ZM314 74 335 74 335 83 314 83ZM365 61 385 61 385 63 365 63ZM416 88 436 88 436 91 416 91ZM518 110 538 110 538 120 518 120ZM569 101 589 101 589 110 569 110ZM619 33 640 33 640 37 619 37ZM670 161 691 161 691 198 670 198ZM772 117 792 117 792 124 772 124ZM823 140 843 140 843 163 823 163ZM874 124 894 124 894 153 874 153ZM925 39 945 39 945 42 925 42ZM975 158 996 158 996 356 975 356ZM1026 31 1047 31 1047 32 1026 32ZM1077 185 1098 185 1098 239 1077 239ZM1128 35 1148 35 1148 37 1128 37ZM1179 52 1199 52 1199 62 1179 62ZM1230 91 1250 91 1250 106 1230 106Z" fill="#5B9BD5"/></g><g><path d="M111 64 131 64 131 68 111 68ZM162 84 182 84 182 86 162 86ZM213 54 233 54 233 57 213 57ZM263 49 284 49 284 52 263 52ZM314 72 335 72 335 74 314 74ZM365 56 385 56 385 61 365 61ZM416 84 436 84 436 88 416 88ZM518 105 538 105 538 110 518 110ZM569 95 589 95 589 101 569 101ZM619 31 640 31 640 33 619 33ZM670 150 691 150 691 161 670 161ZM772 110 792 110 792 117 772 117ZM823 131 843 131 843 140 823 140ZM874 115 894 115 894 124 874 124ZM925 33 945 33 945 39 925 39ZM975 151 996 151 996 158 975 158ZM1026 29 1047 29 1047 31 1026 31ZM1077 161 1098 161 1098 185 1077 185ZM1128 31 1148 31 1148 35 1128 35ZM1179 46 1199 46 1199 52 1179 52ZM1230 86 1250 86 1250 91 1230 91Z" fill="#FFC000"/></g><g><path d="M111 16 131 16 131 64 111 64ZM162 16 182 16 182 84 162 84ZM213 16 233 16 233 54 213 54ZM263 16 284 16 284 49 263 49ZM314 16 335 16 335 72 314 72ZM365 16 385 16 385 56 365 56ZM416 16 436 16 436 84 416 84ZM467 15 487 15 487 16 467 16ZM518 16 538 16 538 105 518 105ZM569 16 589 16 589 95 569 95ZM619 16 640 16 640 31 619 31ZM670 16 691 16 691 150 670 150ZM772 16 792 16 792 110 772 110ZM823 16 843 16 843 131 823 131ZM874 16 894 16 894 115 874 115ZM925 16 945 16 945 33 925 33ZM975 16 996 16 996 151 975 151ZM1026 16 1047 16 1047 29 1026 29ZM1077 16 1098 16 1098 161 1077 161ZM1128 16 1148 16 1148 31 1128 31ZM1179 16 1199 16 1199 46 1179 46ZM1230 16 1250 16 1250 86 1230 86Z" fill="#43682B"/></g><g><path d="M0 0 0.000104987 353" stroke="#000000" stroke-width="2" stroke-linejoin="round" stroke-miterlimit="10" fill="none" fill-rule="evenodd" transform="matrix(1 0 0 -1 96 369)"/></g><g><path d="M96 369 1265 369" stroke="#000000" stroke-width="2" stroke-linejoin="round" stroke-miterlimit="10" fill="none" fill-rule="evenodd"/></g><g><path d="M100.5 214.667C100.5 212.366 102.366 210.5 104.667 210.5L137.333 210.5C139.635 210.5 141.5 212.366 141.5 214.667L141.5 231.333C141.5 233.635 139.635 235.5 137.333 235.5L104.667 235.5C102.366 235.5 100.5 233.635 100.5 231.333Z" stroke="#BFBFBF" stroke-linejoin="round" stroke-miterlimit="10" fill="#FFFFFF" fill-rule="evenodd"/></g><g><g><text font-family="Arial,Arial_MSFontService,sans-serif" font-weight="700" font-size="16" transform="translate(105.505 229)">82.6</text></g></g><g><path d="M157.5 222.667C157.5 220.366 159.366 218.5 161.667 218.5L181.333 218.5C183.635 218.5 185.5 220.366 185.5 222.667L185.5 239.333C185.5 241.635 183.635 243.5 181.333 243.5L161.667 243.5C159.366 243.5 157.5 241.635 157.5 239.333Z" stroke="#BFBFBF" stroke-linejoin="round" stroke-miterlimit="10" fill="#FFFFFF" fill-rule="evenodd"/></g><g><g><text font-family="Arial,Arial_MSFontService,sans-serif" font-weight="700" font-size="16" transform="translate(163.016 237)">78</text></g></g><g><path d="M202.5 205.667C202.5 203.366 204.366 201.5 206.667 201.5L239.333 201.5C241.635 201.5 243.5 203.366 243.5 205.667L243.5 222.333C243.5 224.635 241.635 226.5 239.333 226.5L206.667 226.5C204.366 226.5 202.5 224.635 202.5 222.333Z" stroke="#BFBFBF" stroke-linejoin="round" stroke-miterlimit="10" fill="#FFFFFF" fill-rule="evenodd"/></g><g><g><text font-family="Arial,Arial_MSFontService,sans-serif" font-weight="700" font-size="16" transform="translate(207.22 220)">87.8</text></g></g><g><path d="M252.5 204.667C252.5 202.366 254.366 200.5 256.667 200.5L290.333 200.5C292.635 200.5 294.5 202.366 294.5 204.667L294.5 221.333C294.5 223.635 292.635 225.5 290.333 225.5L256.667 225.5C254.366 225.5 252.5 223.635 252.5 221.333Z" stroke="#BFBFBF" stroke-linejoin="round" stroke-miterlimit="10" fill="#FFFFFF" fill-rule="evenodd"/></g><g><g><text font-family="Arial,Arial_MSFontService,sans-serif" font-weight="700" font-size="16" transform="translate(258.078 219)">88.4</text></g></g><g><path d="M310.5 217.667C310.5 215.366 312.366 213.5 314.667 213.5L334.333 213.5C336.635 213.5 338.5 215.366 338.5 217.667L338.5 234.333C338.5 236.635 336.635 238.5 334.333 238.5L314.667 238.5C312.366 238.5 310.5 236.635 310.5 234.333Z" stroke="#BFBFBF" stroke-linejoin="round" stroke-miterlimit="10" fill="#FFFFFF" fill-rule="evenodd"/></g><g><g><text font-family="Arial,Arial_MSFontService,sans-serif" font-weight="700" font-size="16" transform="translate(315.589 232)">81</text></g></g><g><path d="M354.5 207.667C354.5 205.366 356.366 203.5 358.667 203.5L392.333 203.5C394.635 203.5 396.5 205.366 396.5 207.667L396.5 224.333C396.5 226.635 394.635 228.5 392.333 228.5L358.667 228.5C356.366 228.5 354.5 226.635 354.5 224.333Z" stroke="#BFBFBF" stroke-linejoin="round" stroke-miterlimit="10" fill="#FFFFFF" fill-rule="evenodd"/></g><g><g><text font-family="Arial,Arial_MSFontService,sans-serif" font-weight="700" font-size="16" transform="translate(359.794 222)">86.6</text></g></g><g><path d="M405.5 221.667C405.5 219.366 407.366 217.5 409.667 217.5L442.333 217.5C444.635 217.5 446.5 219.366 446.5 221.667L446.5 238.333C446.5 240.635 444.635 242.5 442.333 242.5L409.667 242.5C407.366 242.5 405.5 240.635 405.5 238.333Z" stroke="#BFBFBF" stroke-linejoin="round" stroke-miterlimit="10" fill="#FFFFFF" fill-rule="evenodd"/></g><g><g><text font-family="Arial,Arial_MSFontService,sans-serif" font-weight="700" font-size="16" transform="translate(410.652 236)">78.6</text></g></g><g><path d="M456.5 184.667C456.5 182.366 458.366 180.5 460.667 180.5L493.333 180.5C495.635 180.5 497.5 182.366 497.5 184.667L497.5 201.333C497.5 203.635 495.635 205.5 493.333 205.5L460.667 205.5C458.366 205.5 456.5 203.635 456.5 201.333Z" stroke="#BFBFBF" stroke-linejoin="round" stroke-miterlimit="10" fill="#FFFFFF" fill-rule="evenodd"/></g><g><g><text font-family="Arial,Arial_MSFontService,sans-serif" font-weight="700" font-size="16" transform="translate(461.51 199)">99.8</text></g></g><g><path d="M507.5 235.667C507.5 233.366 509.366 231.5 511.667 231.5L544.333 231.5C546.635 231.5 548.5 233.366 548.5 235.667L548.5 252.333C548.5 254.635 546.635 256.5 544.333 256.5L511.667 256.5C509.366 256.5 507.5 254.635 507.5 252.333Z" stroke="#BFBFBF" stroke-linejoin="round" stroke-miterlimit="10" fill="#FFFFFF" fill-rule="evenodd"/></g><g><g><text font-family="Arial,Arial_MSFontService,sans-serif" font-weight="700" font-size="16" transform="translate(512.367 250)">70.6</text></g></g><g><path d="M558.5 231.667C558.5 229.366 560.366 227.5 562.667 227.5L595.333 227.5C597.635 227.5 599.5 229.366 599.5 231.667L599.5 248.333C599.5 250.635 597.635 252.5 595.333 252.5L562.667 252.5C560.366 252.5 558.5 250.635 558.5 248.333Z" stroke="#BFBFBF" stroke-linejoin="round" stroke-miterlimit="10" fill="#FFFFFF" fill-rule="evenodd"/></g><g><g><text font-family="Arial,Arial_MSFontService,sans-serif" font-weight="700" font-size="16" transform="translate(563.225 246)">73.2</text></g></g><g><path d="M608.5 194.667C608.5 192.366 610.366 190.5 612.667 190.5L646.333 190.5C648.635 190.5 650.5 192.366 650.5 194.667L650.5 211.333C650.5 213.635 648.635 215.5 646.333 215.5L612.667 215.5C610.366 215.5 608.5 213.635 608.5 211.333Z" stroke="#BFBFBF" stroke-linejoin="round" stroke-miterlimit="10" fill="#FFFFFF" fill-rule="evenodd"/></g><g><g><text font-family="Arial,Arial_MSFontService,sans-serif" font-weight="700" font-size="16" transform="translate(614.083 209)">93.8</text></g></g><g><path d="M659.5 275.5C659.5 273.291 661.291 271.5 663.5 271.5L697.5 271.5C699.709 271.5 701.5 273.291 701.5 275.5L701.5 291.5C701.5 293.709 699.709 295.5 697.5 295.5L663.5 295.5C661.291 295.5 659.5 293.709 659.5 291.5Z" stroke="#BFBFBF" stroke-linejoin="round" stroke-miterlimit="10" fill="#FFFFFF" fill-rule="evenodd"/></g><g><g><text font-family="Arial,Arial_MSFontService,sans-serif" font-weight="700" font-size="16" transform="translate(664.941 289)">48.4</text></g></g><g><path d="M712.5 183.667C712.5 181.366 714.366 179.5 716.667 179.5L745.333 179.5C747.635 179.5 749.5 181.366 749.5 183.667L749.5 200.333C749.5 202.635 747.635 204.5 745.333 204.5L716.667 204.5C714.366 204.5 712.5 202.635 712.5 200.333Z" stroke="#BFBFBF" stroke-linejoin="round" stroke-miterlimit="10" fill="#FFFFFF" fill-rule="evenodd"/></g><g><g><text font-family="Arial,Arial_MSFontService,sans-serif" font-weight="700" font-size="16" transform="translate(718.016 198)">100</text></g></g><g><path d="M761.5 238.5C761.5 236.291 763.291 234.5 765.5 234.5L798.5 234.5C800.709 234.5 802.5 236.291 802.5 238.5L802.5 254.5C802.5 256.709 800.709 258.5 798.5 258.5L765.5 258.5C763.291 258.5 761.5 256.709 761.5 254.5Z" stroke="#BFBFBF" stroke-linejoin="round" stroke-miterlimit="10" fill="#FFFFFF" fill-rule="evenodd"/></g><g><g><text font-family="Arial,Arial_MSFontService,sans-serif" font-weight="700" font-size="16" transform="translate(766.657 252)">69.4</text></g></g><g><path d="M812.5 257.667C812.5 255.366 814.366 253.5 816.667 253.5L849.333 253.5C851.635 253.5 853.5 255.366 853.5 257.667L853.5 274.333C853.5 276.635 851.635 278.5 849.333 278.5L816.667 278.5C814.366 278.5 812.5 276.635 812.5 274.333Z" stroke="#BFBFBF" stroke-linejoin="round" stroke-miterlimit="10" fill="#FFFFFF" fill-rule="evenodd"/></g><g><g><text font-family="Arial,Arial_MSFontService,sans-serif" font-weight="700" font-size="16" transform="translate(817.515 272)">58.2</text></g></g><g><path d="M863.5 252.667C863.5 250.366 865.366 248.5 867.667 248.5L900.333 248.5C902.635 248.5 904.5 250.366 904.5 252.667L904.5 269.333C904.5 271.635 902.635 273.5 900.333 273.5L867.667 273.5C865.366 273.5 863.5 271.635 863.5 269.333Z" stroke="#BFBFBF" stroke-linejoin="round" stroke-miterlimit="10" fill="#FFFFFF" fill-rule="evenodd"/></g><g><g><text font-family="Arial,Arial_MSFontService,sans-serif" font-weight="700" font-size="16" transform="translate(868.372 267)">61.2</text></g></g><g><path d="M914.5 197.5C914.5 195.291 916.291 193.5 918.5 193.5L951.5 193.5C953.709 193.5 955.5 195.291 955.5 197.5L955.5 213.5C955.5 215.709 953.709 217.5 951.5 217.5L918.5 217.5C916.291 217.5 914.5 215.709 914.5 213.5Z" stroke="#BFBFBF" stroke-linejoin="round" stroke-miterlimit="10" fill="#FFFFFF" fill-rule="evenodd"/></g><g><g><text font-family="Arial,Arial_MSFontService,sans-serif" font-weight="700" font-size="16" transform="translate(919.23 211)">92.6</text></g></g><g><path d="M1015.5 192.5C1015.5 190.291 1017.29 188.5 1019.5 188.5L1053.5 188.5C1055.71 188.5 1057.5 190.291 1057.5 192.5L1057.5 208.5C1057.5 210.709 1055.71 212.5 1053.5 212.5L1019.5 212.5C1017.29 212.5 1015.5 210.709 1015.5 208.5Z" stroke="#BFBFBF" stroke-linejoin="round" stroke-miterlimit="10" fill="#FFFFFF" fill-rule="evenodd"/></g><g><g><text font-family="Arial,Arial_MSFontService,sans-serif" font-weight="700" font-size="16" transform="translate(1020.95 206)">95.4</text></g></g><g><path d="M1066.5 295.667C1066.5 293.366 1068.37 291.5 1070.67 291.5L1104.33 291.5C1106.63 291.5 1108.5 293.366 1108.5 295.667L1108.5 312.333C1108.5 314.635 1106.63 316.5 1104.33 316.5L1070.67 316.5C1068.37 316.5 1066.5 314.635 1066.5 312.333Z" stroke="#BFBFBF" stroke-linejoin="round" stroke-miterlimit="10" fill="#FFFFFF" fill-rule="evenodd"/></g><g><g><text font-family="Arial,Arial_MSFontService,sans-serif" font-weight="700" font-size="16" transform="translate(1071.8 310)">36.8</text></g></g><g><path d="M1124.5 194.667C1124.5 192.366 1126.37 190.5 1128.67 190.5L1148.33 190.5C1150.63 190.5 1152.5 192.366 1152.5 194.667L1152.5 211.333C1152.5 213.635 1150.63 215.5 1148.33 215.5L1128.67 215.5C1126.37 215.5 1124.5 213.635 1124.5 211.333Z" stroke="#BFBFBF" stroke-linejoin="round" stroke-miterlimit="10" fill="#FFFFFF" fill-rule="evenodd"/></g><g><g><text font-family="Arial,Arial_MSFontService,sans-serif" font-weight="700" font-size="16" transform="translate(1129.32 209)">94</text></g></g><g><path d="M1168.5 207.667C1168.5 205.366 1170.37 203.5 1172.67 203.5L1205.33 203.5C1207.63 203.5 1209.5 205.366 1209.5 207.667L1209.5 224.333C1209.5 226.635 1207.63 228.5 1205.33 228.5L1172.67 228.5C1170.37 228.5 1168.5 226.635 1168.5 224.333Z" stroke="#BFBFBF" stroke-linejoin="round" stroke-miterlimit="10" fill="#FFFFFF" fill-rule="evenodd"/></g><g><g><text font-family="Arial,Arial_MSFontService,sans-serif" font-weight="700" font-size="16" transform="translate(1173.52 221)">86.8</text></g></g><g><path d="M1219.5 229.5C1219.5 227.291 1221.29 225.5 1223.5 225.5L1256.5 225.5C1258.71 225.5 1260.5 227.291 1260.5 229.5L1260.5 245.5C1260.5 247.709 1258.71 249.5 1256.5 249.5L1223.5 249.5C1221.29 249.5 1219.5 247.709 1219.5 245.5Z" stroke="#BFBFBF" stroke-linejoin="round" stroke-miterlimit="10" fill="#FFFFFF" fill-rule="evenodd"/></g><g><g><text font-family="Arial,Arial_MSFontService,sans-serif" font-weight="700" font-size="16" transform="translate(1224.38 243)">74.4</text></g></g><g><path d="M659.5 171.667C659.5 169.366 661.366 167.5 663.667 167.5L697.333 167.5C699.635 167.5 701.5 169.366 701.5 171.667L701.5 188.333C701.5 190.635 699.635 192.5 697.333 192.5L663.667 192.5C661.366 192.5 659.5 190.635 659.5 188.333Z" stroke="#BFBFBF" stroke-linejoin="round" stroke-miterlimit="10" fill="#FFFFFF" fill-rule="evenodd"/></g><g><g><text font-family="Arial,Arial_MSFontService,sans-serif" font-weight="700" font-size="16" transform="translate(664.941 185)">10.4</text></g></g><g><path d="M971.5 248.667C971.5 246.366 973.366 244.5 975.667 244.5L995.333 244.5C997.635 244.5 999.5 246.366 999.5 248.667L999.5 265.333C999.5 267.635 997.635 269.5 995.333 269.5L975.667 269.5C973.366 269.5 971.5 267.635 971.5 265.333Z" stroke="#BFBFBF" stroke-linejoin="round" stroke-miterlimit="10" fill="#FFFFFF" fill-rule="evenodd"/></g><g><g><text font-family="Arial,Arial_MSFontService,sans-serif" font-weight="700" font-size="16" transform="translate(976.742 263)">56</text></g></g><g><path d="M1066.5 203.667C1066.5 201.366 1068.37 199.5 1070.67 199.5L1104.33 199.5C1106.63 199.5 1108.5 201.366 1108.5 203.667L1108.5 220.333C1108.5 222.635 1106.63 224.5 1104.33 224.5L1070.67 224.5C1068.37 224.5 1066.5 222.635 1066.5 220.333Z" stroke="#BFBFBF" stroke-linejoin="round" stroke-miterlimit="10" fill="#FFFFFF" fill-rule="evenodd"/></g><g><g><text font-family="Arial,Arial_MSFontService,sans-serif" font-weight="700" font-size="16" transform="translate(1071.8 218)">15.4</text></g></g><g><path d="M100.5 31.6668C100.5 29.3656 102.366 27.5001 104.667 27.5001L137.333 27.5001C139.635 27.5001 141.5 29.3656 141.5 31.6668L141.5 48.3333C141.5 50.6345 139.635 52.5001 137.333 52.5001L104.667 52.5001C102.366 52.5001 100.5 50.6345 100.5 48.3333Z" stroke="#BFBFBF" stroke-linejoin="round" stroke-miterlimit="10" fill="#FFFFFF" fill-rule="evenodd"/></g><g><g><text font-family="Arial,Arial_MSFontService,sans-serif" font-weight="700" font-size="16" transform="translate(105.505 45)">13.6</text></g></g><g><path d="M151.5 41.6668C151.5 39.3656 153.366 37.5001 155.667 37.5001L188.333 37.5001C190.635 37.5001 192.5 39.3656 192.5 41.6668L192.5 58.3333C192.5 60.6345 190.635 62.5001 188.333 62.5001L155.667 62.5001C153.366 62.5001 151.5 60.6345 151.5 58.3333Z" stroke="#BFBFBF" stroke-linejoin="round" stroke-miterlimit="10" fill="#FFFFFF" fill-rule="evenodd"/></g><g><g><text font-family="Arial,Arial_MSFontService,sans-serif" font-weight="700" font-size="16" transform="translate(156.362 56)">19.4</text></g></g><g><path d="M208.5 26.6668C208.5 24.3656 210.366 22.5001 212.667 22.5001L232.333 22.5001C234.635 22.5001 236.5 24.3656 236.5 26.6668L236.5 43.3333C236.5 45.6345 234.635 47.5001 232.333 47.5001L212.667 47.5001C210.366 47.5001 208.5 45.6345 208.5 43.3333Z" stroke="#BFBFBF" stroke-linejoin="round" stroke-miterlimit="10" fill="#FFFFFF" fill-rule="evenodd"/></g><g><g><text font-family="Arial,Arial_MSFontService,sans-serif" font-weight="700" font-size="16" transform="translate(213.874 41)">11</text></g></g><g><path d="M257.5 23.6668C257.5 21.3656 259.366 19.5001 261.667 19.5001L285.333 19.5001C287.635 19.5001 289.5 21.3656 289.5 23.6668L289.5 40.3333C289.5 42.6345 287.635 44.5001 285.333 44.5001L261.667 44.5001C259.366 44.5001 257.5 42.6345 257.5 40.3333Z" stroke="#BFBFBF" stroke-linejoin="round" stroke-miterlimit="10" fill="#FFFFFF" fill-rule="evenodd"/></g><g><g><text font-family="Arial,Arial_MSFontService,sans-serif" font-weight="700" font-size="16" transform="translate(262.515 38)">9.4</text></g></g><g><path d="M310.5 35.6668C310.5 33.3656 312.366 31.5001 314.667 31.5001L334.333 31.5001C336.635 31.5001 338.5 33.3656 338.5 35.6668L338.5 52.3333C338.5 54.6345 336.635 56.5001 334.333 56.5001L314.667 56.5001C312.366 56.5001 310.5 54.6345 310.5 52.3333Z" stroke="#BFBFBF" stroke-linejoin="round" stroke-miterlimit="10" fill="#FFFFFF" fill-rule="evenodd"/></g><g><g><text font-family="Arial,Arial_MSFontService,sans-serif" font-weight="700" font-size="16" transform="translate(315.589 50)">16</text></g></g><g><path d="M354.5 27.6668C354.5 25.3656 356.366 23.5001 358.667 23.5001L392.333 23.5001C394.635 23.5001 396.5 25.3656 396.5 27.6668L396.5 44.3333C396.5 46.6345 394.635 48.5001 392.333 48.5001L358.667 48.5001C356.366 48.5001 354.5 46.6345 354.5 44.3333Z" stroke="#BFBFBF" stroke-linejoin="round" stroke-miterlimit="10" fill="#FFFFFF" fill-rule="evenodd"/></g><g><g><text font-family="Arial,Arial_MSFontService,sans-serif" font-weight="700" font-size="16" transform="translate(359.794 42)">11.4</text></g></g><g><path d="M405.5 41.6668C405.5 39.3656 407.366 37.5001 409.667 37.5001L442.333 37.5001C444.635 37.5001 446.5 39.3656 446.5 41.6668L446.5 58.3333C446.5 60.6345 444.635 62.5001 442.333 62.5001L409.667 62.5001C407.366 62.5001 405.5 60.6345 405.5 58.3333Z" stroke="#BFBFBF" stroke-linejoin="round" stroke-miterlimit="10" fill="#FFFFFF" fill-rule="evenodd"/></g><g><g><text font-family="Arial,Arial_MSFontService,sans-serif" font-weight="700" font-size="16" transform="translate(410.652 56)">19.4</text></g></g><g><path d="M507.5 52.5001C507.5 50.2909 509.291 48.5001 511.5 48.5001L544.5 48.5001C546.709 48.5001 548.5 50.2909 548.5 52.5001L548.5 68.5C548.5 70.7092 546.709 72.5001 544.5 72.5001L511.5 72.5001C509.291 72.5001 507.5 70.7092 507.5 68.5Z" stroke="#BFBFBF" stroke-linejoin="round" stroke-miterlimit="10" fill="#FFFFFF" fill-rule="evenodd"/></g><g><g><text font-family="Arial,Arial_MSFontService,sans-serif" font-weight="700" font-size="16" transform="translate(512.367 66)">25.4</text></g></g><g><path d="M558.5 47.5001C558.5 45.2909 560.291 43.5001 562.5 43.5001L595.5 43.5001C597.709 43.5001 599.5 45.2909 599.5 47.5001L599.5 63.5C599.5 65.7092 597.709 67.5001 595.5 67.5001L562.5 67.5001C560.291 67.5001 558.5 65.7092 558.5 63.5Z" stroke="#BFBFBF" stroke-linejoin="round" stroke-miterlimit="10" fill="#FFFFFF" fill-rule="evenodd"/></g><g><g><text font-family="Arial,Arial_MSFontService,sans-serif" font-weight="700" font-size="16" transform="translate(563.225 61)">22.6</text></g></g><g><path d="M666.5 74.6668C666.5 72.3656 668.366 70.5001 670.667 70.5001L690.333 70.5001C692.635 70.5001 694.5 72.3656 694.5 74.6668L694.5 91.3333C694.5 93.6345 692.635 95.5001 690.333 95.5001L670.667 95.5001C668.366 95.5001 666.5 93.6345 666.5 91.3333Z" stroke="#BFBFBF" stroke-linejoin="round" stroke-miterlimit="10" fill="#FFFFFF" fill-rule="evenodd"/></g><g><g><text font-family="Arial,Arial_MSFontService,sans-serif" font-weight="700" font-size="16" transform="translate(671.594 89)">38</text></g></g><g><path d="M761.5 54.5001C761.5 52.2909 763.291 50.5001 765.5 50.5001L798.5 50.5001C800.709 50.5001 802.5 52.2909 802.5 54.5001L802.5 70.5C802.5 72.7092 800.709 74.5001 798.5 74.5001L765.5 74.5001C763.291 74.5001 761.5 72.7092 761.5 70.5Z" stroke="#BFBFBF" stroke-linejoin="round" stroke-miterlimit="10" fill="#FFFFFF" fill-rule="evenodd"/></g><g><g><text font-family="Arial,Arial_MSFontService,sans-serif" font-weight="700" font-size="16" transform="translate(766.657 68)">26.6</text></g></g><g><path d="M812.5 64.6668C812.5 62.3656 814.366 60.5001 816.667 60.5001L849.333 60.5001C851.635 60.5001 853.5 62.3656 853.5 64.6668L853.5 81.3333C853.5 83.6345 851.635 85.5001 849.333 85.5001L816.667 85.5001C814.366 85.5001 812.5 83.6345 812.5 81.3333Z" stroke="#BFBFBF" stroke-linejoin="round" stroke-miterlimit="10" fill="#FFFFFF" fill-rule="evenodd"/></g><g><g><text font-family="Arial,Arial_MSFontService,sans-serif" font-weight="700" font-size="16" transform="translate(817.515 79)">32.6</text></g></g><g><path d="M863.5 57.5001C863.5 55.2909 865.291 53.5001 867.5 53.5001L900.5 53.5001C902.709 53.5001 904.5 55.2909 904.5 57.5001L904.5 73.5C904.5 75.7092 902.709 77.5001 900.5 77.5001L867.5 77.5001C865.291 77.5001 863.5 75.7092 863.5 73.5Z" stroke="#BFBFBF" stroke-linejoin="round" stroke-miterlimit="10" fill="#FFFFFF" fill-rule="evenodd"/></g><g><g><text font-family="Arial,Arial_MSFontService,sans-serif" font-weight="700" font-size="16" transform="translate(868.372 71)">28.2</text></g></g><g><path d="M964.5 74.6668C964.5 72.3656 966.366 70.5001 968.667 70.5001L1002.33 70.5001C1004.63 70.5001 1006.5 72.3656 1006.5 74.6668L1006.5 91.3333C1006.5 93.6345 1004.63 95.5001 1002.33 95.5001L968.667 95.5001C966.366 95.5001 964.5 93.6345 964.5 91.3333Z" stroke="#BFBFBF" stroke-linejoin="round" stroke-miterlimit="10" fill="#FFFFFF" fill-rule="evenodd"/></g><g><g><text font-family="Arial,Arial_MSFontService,sans-serif" font-weight="700" font-size="16" transform="translate(970.088 89)">38.2</text></g></g><g><path d="M1061 78.1668C1061 75.3132 1063.31 73 1066.17 73L1108.83 73C1111.69 73 1114 75.3132 1114 78.1668L1114 98.8332C1114 101.687 1111.69 104 1108.83 104L1066.17 104C1063.31 104 1061 101.687 1061 98.8332Z" stroke="#C00000" stroke-width="4" stroke-linejoin="round" stroke-miterlimit="10" fill="#FFFFFF" fill-rule="evenodd"/></g><g><g><text fill="#C00000" font-family="Arial,Arial_MSFontService,sans-serif" font-weight="700" font-size="21" transform="translate(1066.57 96)">41.2</text></g></g><g><path d="M1172.5 22.6668C1172.5 20.3656 1174.37 18.5001 1176.67 18.5001L1201.33 18.5001C1203.63 18.5001 1205.5 20.3656 1205.5 22.6668L1205.5 39.3333C1205.5 41.6345 1203.63 43.5001 1201.33 43.5001L1176.67 43.5001C1174.37 43.5001 1172.5 41.6345 1172.5 39.3333Z" stroke="#BFBFBF" stroke-linejoin="round" stroke-miterlimit="10" fill="#FFFFFF" fill-rule="evenodd"/></g><g><g><text font-family="Arial,Arial_MSFontService,sans-serif" font-weight="700" font-size="16" transform="translate(1177.96 37)">8.6</text></g></g><g><path d="M1225.5 42.6668C1225.5 40.3656 1227.37 38.5001 1229.67 38.5001L1249.33 38.5001C1251.63 38.5001 1253.5 40.3656 1253.5 42.6668L1253.5 59.3333C1253.5 61.6345 1251.63 63.5001 1249.33 63.5001L1229.67 63.5001C1227.37 63.5001 1225.5 61.6345 1225.5 59.3333Z" stroke="#BFBFBF" stroke-linejoin="round" stroke-miterlimit="10" fill="#FFFFFF" fill-rule="evenodd"/></g><g><g><text font-family="Arial,Arial_MSFontService,sans-serif" font-weight="700" font-size="16" transform="translate(1231.03 57)">20</text></g></g><g><text font-family="Arial,Arial_MSFontService,sans-serif" font-weight="700" font-size="16" transform="translate(58.8067 374)">0%</text></g><g><text font-family="Arial,Arial_MSFontService,sans-serif" font-weight="700" font-size="16" transform="translate(49.9333 338)">10%</text></g><g><text font-family="Arial,Arial_MSFontService,sans-serif" font-weight="700" font-size="16" transform="translate(49.9333 303)">20%</text></g><g><text font-family="Arial,Arial_MSFontService,sans-serif" font-weight="700" font-size="16" transform="translate(49.9333 268)">30%</text></g><g><text font-family="Arial,Arial_MSFontService,sans-serif" font-weight="700" font-size="16" transform="translate(49.9333 232)">40%</text></g><g><text font-family="Arial,Arial_MSFontService,sans-serif" font-weight="700" font-size="16" transform="translate(49.9333 197)">50%</text></g><g><text font-family="Arial,Arial_MSFontService,sans-serif" font-weight="700" font-size="16" transform="translate(49.9333 162)">60%</text></g><g><text font-family="Arial,Arial_MSFontService,sans-serif" font-weight="700" font-size="16" transform="translate(49.9333 126)">70%</text></g><g><text font-family="Arial,Arial_MSFontService,sans-serif" font-weight="700" font-size="16" transform="translate(49.9333 91)">80%</text></g><g><text font-family="Arial,Arial_MSFontService,sans-serif" font-weight="700" font-size="16" transform="translate(49.9333 56)">90%</text></g><g><text font-family="Arial,Arial_MSFontService,sans-serif" font-weight="700" font-size="16" transform="translate(41.0599 20)">100%</text></g><g><text font-family="Arial,Arial_MSFontService,sans-serif" font-weight="700" font-size="13" transform="matrix(0.707107 -0.707107 0.707107 0.707107 57.7148 452)">LLaVA-v1.5-7B</text></g><g><text font-family="Arial,Arial_MSFontService,sans-serif" font-weight="700" font-size="13" transform="matrix(0.707107 -0.707107 0.707107 0.707107 103.331 457)">LLaVA-v1.5-13B</text></g><g><text font-family="Arial,Arial_MSFontService,sans-serif" font-weight="700" font-size="13" transform="matrix(0.707107 -0.707107 0.707107 0.707107 125.904 486)">LLaVA-v1.6-Mistral-7B</text></g><g><text font-family="Arial,Arial_MSFontService,sans-serif" font-weight="700" font-size="13" transform="matrix(0.707107 -0.707107 0.707107 0.707107 176.234 486)">LLaVA-v1.6-Vicuna-7B</text></g><g><text font-family="Arial,Arial_MSFontService,sans-serif" font-weight="700" font-size="13" transform="matrix(0.707107 -0.707107 0.707107 0.707107 221.85 491)">LLaVA-v1.6-Vicuna-13B</text></g><g><text font-family="Arial,Arial_MSFontService,sans-serif" font-weight="700" font-size="13" transform="matrix(0.707107 -0.707107 0.707107 0.707107 306.762 457)">LLaVA-v1.6-34B</text></g><g><text font-family="Arial,Arial_MSFontService,sans-serif" font-weight="700" font-size="13" transform="matrix(0.707107 -0.707107 0.707107 0.707107 320.973 494)">LLaMA3-LLaVA-Next-8B</text></g><g><text font-family="Arial,Arial_MSFontService,sans-serif" font-weight="700" font-size="13" transform="matrix(0.707107 -0.707107 0.707107 0.707107 406.394 459)">LLaVA-Next-72B</text></g><g><text font-family="Arial,Arial_MSFontService,sans-serif" font-weight="700" font-size="13" transform="matrix(0.707107 -0.707107 0.707107 0.707107 445.731 471)">InternVL-Chat-V1-5</text></g><g><text font-family="Arial,Arial_MSFontService,sans-serif" font-weight="700" font-size="13" transform="matrix(0.707107 -0.707107 0.707107 0.707107 476.686 491)">InternVL-Chat-V1-5-Int8</text></g><g><text font-family="Arial,Arial_MSFontService,sans-serif" font-weight="700" font-size="13" transform="matrix(0.707107 -0.707107 0.707107 0.707107 510.262 508)">Mini-InternVL-Chat-2B-V1-5</text></g><g><text font-family="Arial,Arial_MSFontService,sans-serif" font-weight="700" font-size="13" transform="matrix(0.707107 -0.707107 0.707107 0.707107 561.12 508)">Mini-InternVL-Chat-4B-V1-5</text></g><g><text font-family="Arial,Arial_MSFontService,sans-serif" font-weight="700" font-size="13" transform="matrix(0.707107 -0.707107 0.707107 0.707107 622.981 497)">InternVL-Chat-V1-5-AWQ</text></g><g><text font-family="Arial,Arial_MSFontService,sans-serif" font-weight="700" font-size="13" transform="matrix(0.707107 -0.707107 0.707107 0.707107 684.294 487)">MiniCPM-Llama3-V-2.5</text></g><g><text font-family="Arial,Arial_MSFontService,sans-serif" font-weight="700" font-size="13" transform="matrix(0.707107 -0.707107 0.707107 0.707107 767.113 455)">Mini-Gemini-8B</text></g><g><text font-family="Arial,Arial_MSFontService,sans-serif" font-weight="700" font-size="13" transform="matrix(0.707107 -0.707107 0.707107 0.707107 801.218 472)">Mini-Gemini-8B-HD</text></g><g><text font-family="Arial,Arial_MSFontService,sans-serif" font-weight="700" font-size="13" transform="matrix(0.707107 -0.707107 0.707107 0.707107 887.676 436)">Idefics2-8B</text></g><g><text font-family="Arial,Arial_MSFontService,sans-serif" font-weight="700" font-size="13" transform="matrix(0.707107 -0.707107 0.707107 0.707107 934.866 440)">Phi-3 Vision</text></g><g><text font-family="Arial,Arial_MSFontService,sans-serif" font-weight="700" font-size="13" transform="matrix(0.707107 -0.707107 0.707107 0.707107 981.019 444)">Moondream2</text></g><g><text font-family="Arial,Arial_MSFontService,sans-serif" font-weight="700" font-size="13" transform="matrix(0.707107 -0.707107 0.707107 0.707107 1025.6 451)">Qwen-VL-Chat</text></g><g><text font-family="Arial,Arial_MSFontService,sans-serif" font-weight="700" font-size="13" transform="matrix(0.707107 -0.707107 0.707107 0.707107 1062.3 465)">Falcon2-11B-VLM</text></g><g><text font-family="Arial,Arial_MSFontService,sans-serif" font-weight="700" font-size="13" transform="matrix(0.707107 -0.707107 0.707107 0.707107 1108.96 469)">DeepSeek-VL-1.3B</text></g><g><text font-family="Arial,Arial_MSFontService,sans-serif" font-weight="700" font-size="13" transform="matrix(0.707107 -0.707107 0.707107 0.707107 1167.68 461)">DeepSeek-VL-7B</text></g><g><text font-family="Arial,Arial_MSFontService,sans-serif" font-weight="700" font-size="18" transform="matrix(6.12323e-17 -1 1 6.12323e-17 33.6666 240)">Percentage</text></g><g><rect x="525" y="514" width="8" height="8" fill="#70AD47"/></g><g><g><text font-family="Arial,Arial_MSFontService,sans-serif" font-weight="700" font-size="16" transform="translate(536.131 524)">T1 (↓)</text></g></g><g><rect x="585" y="514" width="8" height="8" fill="#5B9BD5"/></g><g><g><text font-family="Arial,Arial_MSFontService,sans-serif" font-weight="700" font-size="16" transform="translate(596.949 524)">T2 (↓)</text></g></g><g><rect x="646" y="514" width="8" height="8" fill="#FFC000"/></g><g><g><text font-family="Arial,Arial_MSFontService,sans-serif" font-weight="700" font-size="16" transform="translate(657.767 524)">T3 (↓)</text></g></g><g><rect x="707" y="514" width="8" height="8" fill="#43682B"/></g><g><g><text font-family="Arial,Arial_MSFontService,sans-serif" font-weight="700" font-size="16" transform="translate(718.586 524)">T4 (↑)</text></g></g></g></svg>