<svg width="1262" height="153" xmlns="http://www.w3.org/2000/svg" xmlns:xlink="http://www.w3.org/1999/xlink" overflow="hidden"><g><rect x="0" y="0" width="1262" height="152.874" fill="#FFFFFF"/><path d="M3.00005 29.028C3.00005 26.2402 5.26191 23.9802 8.05207 23.9802L1253.95 23.9802C1256.74 23.9802 1259 26.2402 1259 29.028L1259 143.829C1259 146.617 1256.74 148.877 1253.95 148.877L8.05207 148.877C5.26191 148.877 3.00005 146.617 3.00005 143.829Z" stroke="#000000" stroke-width="3.99894" stroke-miterlimit="8" fill="none" fill-rule="evenodd"/><path d="M20.5 11.1572C20.5 7.47849 23.4846 4.49631 27.1662 4.49631L781.834 4.49631C785.515 4.49631 788.5 7.47849 788.5 11.1572L788.5 37.8024C788.5 41.4811 785.515 44.4633 781.834 44.4633L27.1662 44.4633C23.4846 44.4633 20.5 41.4811 20.5 37.8024Z" stroke="#172C51" stroke-width="1.33298" stroke-miterlimit="8" fill-rule="evenodd"/><text fill="#FFFFFF" font-family="Arial,Arial_MSFontService,sans-serif" font-weight="700" font-size="24" transform="matrix(1 0 0 0.999176 31.8249 32)">Prompt Prefix to Teach LVLMs to Give More Reasonable Refusals</text><text font-family="Arial,Arial_MSFontService,sans-serif" font-weight="400" font-size="24" transform="matrix(1 0 0 0.999176 29.3598 68)">Before</text><text font-family="Arial,Arial_MSFontService,sans-serif" font-weight="400" font-size="24" transform="matrix(1 0 0 0.999176 106.813 68)">responding,</text><text font-family="Arial,Arial_MSFontService,sans-serif" font-weight="400" font-size="24" transform="matrix(1 0 0 0.999176 238.918 68)">carefully</text><text font-family="Arial,Arial_MSFontService,sans-serif" font-weight="400" font-size="24" transform="matrix(1 0 0 0.999176 335.032 68)">integrate</text><text font-family="Arial,Arial_MSFontService,sans-serif" font-weight="400" font-size="24" transform="matrix(1 0 0 0.999176 435.146 68)">information</text><text font-family="Arial,Arial_MSFontService,sans-serif" font-weight="400" font-size="24" transform="matrix(1 0 0 0.999176 560.586 68)">from</text><text font-family="Arial,Arial_MSFontService,sans-serif" font-weight="400" font-size="24" transform="matrix(1 0 0 0.999176 615.385 68)">both</text><text font-family="Arial,Arial_MSFontService,sans-serif" font-weight="400" font-size="24" transform="matrix(1 0 0 0.999176 668.851 68)">text</text><text font-family="Arial,Arial_MSFontService,sans-serif" font-weight="400" font-size="24" transform="matrix(1 0 0 0.999176 714.319 68)">and</text><text font-family="Arial,Arial_MSFontService,sans-serif" font-weight="400" font-size="24" transform="matrix(1 0 0 0.999176 761.12 68)">image</text><text font-family="Arial,Arial_MSFontService,sans-serif" font-weight="400" font-size="24" transform="matrix(1 0 0 0.999176 833.247 68)">inputs</text><text font-family="Arial,Arial_MSFontService,sans-serif" font-weight="400" font-size="24" transform="matrix(1 0 0 0.999176 904.042 68)">to</text><text font-family="Arial,Arial_MSFontService,sans-serif" font-weight="400" font-size="24" transform="matrix(1 0 0 0.999176 930.848 68)">accurately</text><text font-family="Arial,Arial_MSFontService,sans-serif" font-weight="700" font-size="24" transform="matrix(1 0 0 0.999176 1046.96 68)">identify</text><text font-family="Arial,Arial_MSFontService,sans-serif" font-weight="700" font-size="24" transform="matrix(1 0 0 0.999176 1139.09 68)">the</text><text font-family="Arial,Arial_MSFontService,sans-serif" font-weight="700" font-size="24" transform="matrix(1 0 0 0.999176 1181.89 68)">task</text><text font-family="Arial,Arial_MSFontService,sans-serif" font-weight="700" font-size="24" transform="matrix(1 0 0 0.999176 29.3598 102)">conveyed</text><text font-family="Arial,Arial_MSFontService,sans-serif" font-weight="700" font-size="24" transform="matrix(1 0 0 0.999176 148.235 102)">by</text><text font-family="Arial,Arial_MSFontService,sans-serif" font-weight="700" font-size="24" transform="matrix(1 0 0 0.999176 184.465 102)">the</text><text font-family="Arial,Arial_MSFontService,sans-serif" font-weight="700" font-size="24" transform="matrix(1 0 0 0.999176 228.7 102)">text</text><text font-family="Arial,Arial_MSFontService,sans-serif" font-weight="700" font-size="24" transform="matrix(1 0 0 0.999176 279.6 102)">within</text><text font-family="Arial,Arial_MSFontService,sans-serif" font-weight="700" font-size="24" transform="matrix(1 0 0 0.999176 357.16 102)">the</text><text font-family="Arial,Arial_MSFontService,sans-serif" font-weight="700" font-size="24" transform="matrix(1 0 0 0.999176 401.395 102)">context</text><text font-family="Arial,Arial_MSFontService,sans-serif" font-weight="700" font-size="24" transform="matrix(1 0 0 0.999176 494.95 102)">of</text><text font-family="Arial,Arial_MSFontService,sans-serif" font-weight="700" font-size="24" transform="matrix(1 0 0 0.999176 525.855 102)">the</text><text font-family="Arial,Arial_MSFontService,sans-serif" font-weight="700" font-size="24" transform="matrix(1 0 0 0.999176 570.09 102)">picture</text><text font-family="Arial,Arial_MSFontService,sans-serif" font-weight="400" font-size="24" transform="matrix(1 0 0 0.999176 650.069 102)">.</text><text font-family="Arial,Arial_MSFontService,sans-serif" font-weight="400" font-size="24" transform="matrix(1 0 0 0.999176 664.979 102)">Avoid</text><text font-family="Arial,Arial_MSFontService,sans-serif" font-weight="400" font-size="24" transform="matrix(1 0 0 0.999176 732.774 102)">hastily</text><text font-family="Arial,Arial_MSFontService,sans-serif" font-weight="400" font-size="24" transform="matrix(1 0 0 0.999176 809 102)">rejecting</text><text font-family="Arial,Arial_MSFontService,sans-serif" font-weight="400" font-size="24" transform="matrix(1 0 0 0.999176 907.888 102)">seemingly</text><text font-family="Arial,Arial_MSFontService,sans-serif" font-weight="400" font-size="24" transform="matrix(1 0 0 0.999176 1024.1 102)">unsafe</text><text font-family="Arial,Arial_MSFontService,sans-serif" font-weight="400" font-size="24" transform="matrix(1 0 0 0.999176 1104.33 102)">images</text><text font-family="Arial,Arial_MSFontService,sans-serif" font-weight="400" font-size="24" transform="matrix(1 0 0 0.999176 1189.89 102)">and</text><text font-family="Arial,Arial_MSFontService,sans-serif" font-weight="400" font-size="24" transform="matrix(1 0 0 0.999176 29.3598 137)">text</text><text font-family="Arial,Arial_MSFontService,sans-serif" font-weight="400" font-size="24" transform="matrix(1 0 0 0.999176 74.6812 137)">that</text><text font-family="Arial,Arial_MSFontService,sans-serif" font-weight="400" font-size="24" transform="matrix(1 0 0 0.999176 121.336 137)">may</text><text font-family="Arial,Arial_MSFontService,sans-serif" font-weight="400" font-size="24" transform="matrix(1 0 0 0.999176 173.322 137)">actually</text><text font-family="Arial,Arial_MSFontService,sans-serif" font-weight="400" font-size="24" transform="matrix(1 0 0 0.999176 261.299 137)">be</text><text font-family="Arial,Arial_MSFontService,sans-serif" font-weight="400" font-size="24" transform="matrix(1 0 0 0.999176 294.623 137)">harmless</text><text font-family="Arial,Arial_MSFontService,sans-serif" font-weight="400" font-size="24" transform="matrix(1 0 0 0.999176 398.596 137)">when</text><text font-family="Arial,Arial_MSFontService,sans-serif" font-weight="400" font-size="24" transform="matrix(1 0 0 0.999176 462.579 137)">combined</text><text font-family="Arial,Arial_MSFontService,sans-serif" font-weight="400" font-size="24" transform="matrix(1 0 0 0.999176 566.551 137)">.</text></g></svg>