<svg width="1253" height="340" xmlns="http://www.w3.org/2000/svg" xmlns:xlink="http://www.w3.org/1999/xlink" overflow="hidden"><defs><clipPath id="clip0"><rect x="0" y="0" width="1253" height="340"/></clipPath><clipPath id="clip1"><rect x="825" y="8" width="409" height="227"/></clipPath></defs><g clip-path="url(#clip0)"><rect x="0" y="0" width="1253" height="339.788" fill="#FFFFFF"/><g><path d="M279.508 8.49473 279.508 234.354M361.51 8.49473 361.51 234.354M442.512 8.49473 442.512 234.354M524.515 8.49473 524.515 234.354M606.5 8.49473 606.5 234.354" stroke="#D9D9D9" stroke-width="1.00013" stroke-linejoin="round" stroke-miterlimit="10" fill="none"/></g><g><path d="M496.014 220.869 198 220.869 198 202.879 496.014 202.879ZM244.007 175.895 198 175.895 198 157.906 244.007 157.906ZM231.006 130.922 198 130.922 198 111.933 231.006 111.933ZM273.008 84.9494 198 84.9494 198 66.9601 273.008 66.9601ZM535.015 39.9762 198 39.9762 198 21.9869 535.015 21.9869Z" fill="#70AD47"/></g><g><path d="M523.015 220.869 496.014 220.869 496.014 202.879 523.015 202.879ZM410.011 175.895 244.007 175.895 244.007 157.906 410.011 157.906ZM431.012 130.922 231.006 130.922 231.006 111.933 431.012 111.933ZM414.012 84.9494 273.008 84.9494 273.008 66.9601 414.012 66.9601ZM546.015 39.9762 535.015 39.9762 535.015 21.9869 546.015 21.9869Z" fill="#5B9BD5"/></g><g><path d="M529.015 220.869 523.015 220.869 523.015 202.879 529.015 202.879ZM421.012 175.895 410.011 175.895 410.011 157.906 421.012 157.906ZM434.012 130.922 431.012 130.922 431.012 111.933 434.012 111.933ZM426.012 84.9494 414.012 84.9494 414.012 66.9601 426.012 66.9601ZM551.015 39.9762 546.015 39.9762 546.015 21.9869 551.015 21.9869Z" fill="#FFC000"/></g><g><path d="M606.017 220.869 529.015 220.869 529.015 202.879 606.017 202.879ZM606.017 175.895 421.012 175.895 421.012 157.906 606.017 157.906ZM606.017 130.922 434.012 130.922 434.012 111.933 606.017 111.933ZM606.017 84.9494 426.012 84.9494 426.012 66.9601 606.017 66.9601ZM606.017 39.9762 551.015 39.9762 551.015 21.9869 606.017 21.9869Z" fill="#43682B"/></g><g><path d="M198 234.854 606 234.854" stroke="#000000" stroke-width="2.00027" stroke-linejoin="round" stroke-miterlimit="10" fill="none" fill-rule="evenodd"/></g><g><path d="M0 0 0.000104935 226.859" stroke="#000000" stroke-width="1.99902" stroke-linejoin="round" stroke-miterlimit="10" fill="none" fill-rule="evenodd" transform="matrix(1.00062 0 0 -1 198 234.854)"/></g><g><path d="M332.5 203.54C332.5 201.24 334.365 199.376 336.667 199.376L356.333 199.376C358.634 199.376 360.5 201.24 360.5 203.54L360.5 220.196C360.5 222.496 358.634 224.36 356.333 224.36L336.667 224.36C334.365 224.36 332.5 222.496 332.5 220.196Z" stroke="#BFBFBF" stroke-width="1.00013" stroke-linejoin="round" stroke-miterlimit="10" fill="#FFFFFF" fill-rule="evenodd"/></g><g><g><text fill="#595959" font-family="Arial,Arial_MSFontService,sans-serif" font-weight="700" font-size="16" transform="matrix(1 0 0 0.999377 338.054 218)">73</text></g></g><g><path d="M200.5 158.568C200.5 156.268 202.365 154.404 204.667 154.404L237.333 154.404C239.635 154.404 241.5 156.268 241.5 158.568L241.5 175.224C241.5 177.524 239.635 179.388 237.333 179.388L204.667 179.388C202.365 179.388 200.5 177.524 200.5 175.224Z" stroke="#BFBFBF" stroke-width="1.00013" stroke-linejoin="round" stroke-miterlimit="10" fill="#FFFFFF" fill-rule="evenodd"/></g><g><g><text fill="#595959" font-family="Arial,Arial_MSFontService,sans-serif" font-weight="700" font-size="16" transform="matrix(1 0 0 0.999377 205.304 172)">11.2</text></g></g><g><path d="M205.5 112.43C205.5 110.774 206.843 109.432 208.5 109.432L220.5 109.432C222.157 109.432 223.5 110.774 223.5 112.43L223.5 130.419C223.5 132.074 222.157 133.417 220.5 133.417L208.5 133.417C206.843 133.417 205.5 132.074 205.5 130.419Z" stroke="#BFBFBF" stroke-width="1.00013" stroke-linejoin="round" stroke-miterlimit="10" fill="#FFFFFF" fill-rule="evenodd"/></g><g><g><text fill="#595959" font-family="Arial,Arial_MSFontService,sans-serif" font-weight="700" font-size="16" transform="matrix(1 0 0 0.999377 209.866 127)">8</text></g></g><g><path d="M214.5 67.6246C214.5 65.3248 216.366 63.4604 218.667 63.4604L252.333 63.4604C254.635 63.4604 256.5 65.3248 256.5 67.6246L256.5 84.2807C256.5 86.5805 254.635 88.4448 252.333 88.4448L218.667 88.4448C216.366 88.4448 214.5 86.5805 214.5 84.2807Z" stroke="#BFBFBF" stroke-width="1.00013" stroke-linejoin="round" stroke-miterlimit="10" fill="#FFFFFF" fill-rule="evenodd"/></g><g><g><text fill="#595959" font-family="Arial,Arial_MSFontService,sans-serif" font-weight="700" font-size="16" transform="matrix(1 0 0 0.999377 219.994 82)">18.4</text></g></g><g><path d="M345.5 22.6526C345.5 20.3528 347.366 18.4885 349.667 18.4885L383.333 18.4885C385.635 18.4885 387.5 20.3528 387.5 22.6526L387.5 39.3087C387.5 41.6085 385.635 43.4729 383.333 43.4729L349.667 43.4729C347.366 43.4729 345.5 41.6085 345.5 39.3087Z" stroke="#BFBFBF" stroke-width="1.00013" stroke-linejoin="round" stroke-miterlimit="10" fill="#FFFFFF" fill-rule="evenodd"/></g><g><g><text fill="#595959" font-family="Arial,Arial_MSFontService,sans-serif" font-weight="700" font-size="16" transform="matrix(1 0 0 0.999377 350.987 37)">82.6</text></g></g><g><path d="M306.5 158.568C306.5 156.268 308.365 154.404 310.667 154.404L343.333 154.404C345.634 154.404 347.5 156.268 347.5 158.568L347.5 175.224C347.5 177.524 345.634 179.388 343.333 179.388L310.667 179.388C308.365 179.388 306.5 177.524 306.5 175.224Z" stroke="#BFBFBF" stroke-width="1.00013" stroke-linejoin="round" stroke-miterlimit="10" fill="#FFFFFF" fill-rule="evenodd"/></g><g><g><text fill="#595959" font-family="Arial,Arial_MSFontService,sans-serif" font-weight="700" font-size="16" transform="matrix(1 0 0 0.999377 311.404 172)">40.8</text></g></g><g><path d="M316.5 113.429C316.5 111.222 318.291 109.432 320.5 109.432L340.5 109.432C342.709 109.432 344.5 111.222 344.5 113.429L344.5 129.419C344.5 131.627 342.709 133.417 340.5 133.417L320.5 133.417C318.291 133.417 316.5 131.627 316.5 129.419Z" stroke="#BFBFBF" stroke-width="1.00013" stroke-linejoin="round" stroke-miterlimit="10" fill="#FFFFFF" fill-rule="evenodd"/></g><g><g><text fill="#595959" font-family="Arial,Arial_MSFontService,sans-serif" font-weight="700" font-size="16" transform="matrix(1 0 0 0.999377 321.731 127)">49</text></g></g><g><path d="M322.5 67.6246C322.5 65.3248 324.366 63.4604 326.667 63.4604L360.333 63.4604C362.635 63.4604 364.5 65.3248 364.5 67.6246L364.5 84.2807C364.5 86.5805 362.635 88.4448 360.333 88.4448L326.667 88.4448C324.366 88.4448 322.5 86.5805 322.5 84.2807Z" stroke="#BFBFBF" stroke-width="1.00013" stroke-linejoin="round" stroke-miterlimit="10" fill="#FFFFFF" fill-rule="evenodd"/></g><g><g><text fill="#595959" font-family="Arial,Arial_MSFontService,sans-serif" font-weight="700" font-size="16" transform="matrix(1 0 0 0.999377 328.135 82)">34.6</text></g></g><g><path d="M553.5 203.54C553.5 201.24 555.366 199.376 557.667 199.376L577.333 199.376C579.635 199.376 581.5 201.24 581.5 203.54L581.5 220.196C581.5 222.496 579.635 224.36 577.333 224.36L557.667 224.36C555.366 224.36 553.5 222.496 553.5 220.196Z" stroke="#BFBFBF" stroke-width="1.00013" stroke-linejoin="round" stroke-miterlimit="10" fill="#FFFFFF" fill-rule="evenodd"/></g><g><g><text fill="#595959" font-family="Arial,Arial_MSFontService,sans-serif" font-weight="700" font-size="16" transform="matrix(1 0 0 0.999377 558.416 218)">19</text></g></g><g><path d="M487 156.236C487 153.292 489.388 150.906 492.333 150.906L534.667 150.906C537.612 150.906 540 153.292 540 156.236L540 177.556C540 180.5 537.612 182.886 534.667 182.886L492.333 182.886C489.388 182.886 487 180.5 487 177.556Z" stroke="#C00000" stroke-width="4.00053" stroke-linejoin="round" stroke-miterlimit="10" fill="#FFFFFF" fill-rule="evenodd"/></g><g><g><text fill="#C00000" font-family="Arial,Arial_MSFontService,sans-serif" font-weight="700" font-size="21" transform="matrix(1 0 0 0.999377 492.658 174)">45.4</text></g></g><g><path d="M499.5 113.429C499.5 111.222 501.291 109.432 503.5 109.432L536.5 109.432C538.709 109.432 540.5 111.222 540.5 113.429L540.5 129.419C540.5 131.627 538.709 133.417 536.5 133.417L503.5 133.417C501.291 133.417 499.5 131.627 499.5 129.419Z" stroke="#BFBFBF" stroke-width="1.00013" stroke-linejoin="round" stroke-miterlimit="10" fill="#FFFFFF" fill-rule="evenodd"/></g><g><g><text fill="#595959" font-family="Arial,Arial_MSFontService,sans-serif" font-weight="700" font-size="16" transform="matrix(1 0 0 0.999377 504.425 127)">42.2</text></g></g><g><path d="M495.5 67.6246C495.5 65.3248 497.366 63.4604 499.667 63.4604L532.333 63.4604C534.635 63.4604 536.5 65.3248 536.5 67.6246L536.5 84.2806C536.5 86.5804 534.635 88.4447 532.333 88.4447L499.667 88.4447C497.366 88.4447 495.5 86.5804 495.5 84.2806Z" stroke="#BFBFBF" stroke-width="1.00013" stroke-linejoin="round" stroke-miterlimit="10" fill="#FFFFFF" fill-rule="evenodd"/></g><g><g><text fill="#595959" font-family="Arial,Arial_MSFontService,sans-serif" font-weight="700" font-size="16" transform="matrix(1 0 0 0.999377 500.344 82)">44.2</text></g></g><g><path d="M557.5 22.6526C557.5 20.3528 559.366 18.4885 561.667 18.4885L595.333 18.4885C597.635 18.4885 599.5 20.3528 599.5 22.6526L599.5 39.3087C599.5 41.6085 597.635 43.4729 595.333 43.4729L561.667 43.4729C559.366 43.4729 557.5 41.6085 557.5 39.3087Z" stroke="#BFBFBF" stroke-width="1.00013" stroke-linejoin="round" stroke-miterlimit="10" fill="#FFFFFF" fill-rule="evenodd"/></g><g><g><text fill="#595959" font-family="Arial,Arial_MSFontService,sans-serif" font-weight="700" font-size="16" transform="matrix(1 0 0 0.999377 562.78 37)">13.6</text></g></g><g><text font-family="Arial,Arial_MSFontService,sans-serif" font-weight="700" font-size="16" transform="matrix(1 0 0 0.999377 186.445 258)">0%</text></g><g><text font-family="Arial,Arial_MSFontService,sans-serif" font-weight="700" font-size="16" transform="matrix(1 0 0 0.999377 263.624 258)">20%</text></g><g><text font-family="Arial,Arial_MSFontService,sans-serif" font-weight="700" font-size="16" transform="matrix(1 0 0 0.999377 345.239 258)">40%</text></g><g><text font-family="Arial,Arial_MSFontService,sans-serif" font-weight="700" font-size="16" transform="matrix(1 0 0 0.999377 426.855 258)">60%</text></g><g><text font-family="Arial,Arial_MSFontService,sans-serif" font-weight="700" font-size="16" transform="matrix(1 0 0 0.999377 508.47 258)">80%</text></g><g><text font-family="Arial,Arial_MSFontService,sans-serif" font-weight="700" font-size="16" transform="matrix(1 0 0 0.999377 585.649 258)">100%</text></g><g><text font-family="Arial,Arial_MSFontService,sans-serif" font-weight="700" font-size="16" transform="matrix(1 0 0 0.999377 12.6726 217)">+VLG.-Mixed-LoRA</text></g><g><text font-family="Arial,Arial_MSFontService,sans-serif" font-weight="700" font-size="16" transform="matrix(1 0 0 0.999377 11.7653 171)">+VLG.-Mixed</text></g><g><text font-family="Arial,Arial_MSFontService,sans-serif" font-weight="700" font-size="16" transform="matrix(1 0 0 0.999377 11.7993 126)">+VLG.-Post-hoc-LoRA</text></g><g><text font-family="Arial,Arial_MSFontService,sans-serif" font-weight="700" font-size="16" transform="matrix(1 0 0 0.999377 15.326 81)">+VLG.-Post-hoc</text></g><g><text font-family="Arial,Arial_MSFontService,sans-serif" font-weight="700" font-size="16" transform="matrix(1 0 0 0.999377 0.670325 35)">LLaVA-v1.5-7B</text></g><g><text font-family="Arial,Arial_MSFontService,sans-serif" font-weight="700" font-size="18" transform="matrix(1 0 0 0.999377 328.659 278)">Percentage</text></g><g><rect x="253" y="289.819" width="8.00002" height="7.99493" fill="#70AD47"/></g><g><g><text font-family="Arial,Arial_MSFontService,sans-serif" font-weight="700" font-size="16" transform="matrix(1 0 0 0.999377 264.039 299)">T1 (↓)</text></g></g><g><rect x="319" y="289.819" width="8" height="7.99493" fill="#5B9BD5"/></g><g><g><text font-family="Arial,Arial_MSFontService,sans-serif" font-weight="700" font-size="16" transform="matrix(1 0 0 0.999377 330.985 299)">T2 (↓)</text></g></g><g><rect x="386" y="289.819" width="8" height="7.99493" fill="#FFC000"/></g><g><g><text font-family="Arial,Arial_MSFontService,sans-serif" font-weight="700" font-size="16" transform="matrix(1 0 0 0.999377 397.93 299)">T3 (↓)</text></g></g><g><rect x="453" y="289.819" width="8" height="7.99493" fill="#43682B"/></g><g><g><text font-family="Arial,Arial_MSFontService,sans-serif" font-weight="700" font-size="16" transform="matrix(1 0 0 0.999377 464.876 299)">T4 (↑)</text></g></g><g><path d="M907.525 8.49473 907.525 234.354M988.528 8.49473 988.528 234.354M1070.53 8.49473 1070.53 234.354M1151.53 8.49473 1151.53 234.354M1233.5 8.49473 1233.5 234.354" stroke="#D9D9D9" stroke-width="1.00013" stroke-linejoin="round" stroke-miterlimit="10" fill="none"/></g><g><path d="M1089.03 220.869 826 220.869 826 202.879 1089.03 202.879ZM888.025 175.895 826 175.895 826 157.906 888.025 157.906ZM844.024 130.922 826 130.922 826 111.933 844.024 111.933ZM882.025 84.9494 826 84.9494 826 66.9601 882.025 66.9601ZM1144.03 39.9762 826 39.9762 826 21.9869 1144.03 21.9869Z" fill="#70AD47"/></g><g><path d="M1128.03 220.869 1089.03 220.869 1089.03 202.879 1128.03 202.879ZM1039.03 175.895 888.025 175.895 888.025 157.906 1039.03 157.906ZM1043.03 130.922 844.024 130.922 844.024 111.933 1043.03 111.933ZM1034.03 84.9494 882.025 84.9494 882.025 66.9601 1034.03 66.9601ZM1152.03 39.9762 1144.03 39.9762 1144.03 21.9869 1152.03 21.9869Z" fill="#5B9BD5"/></g><g><path d="M1133.03 220.869 1128.03 220.869 1128.03 202.879 1133.03 202.879ZM1043.03 175.895 1039.03 175.895 1039.03 157.906 1043.03 157.906ZM1043.03 130.922 1044.03 130.922 1044.03 111.933 1043.03 111.933ZM1043.03 84.9494 1034.03 84.9494 1034.03 66.9601 1043.03 66.9601ZM1154.03 39.9762 1152.03 39.9762 1152.03 21.9869 1154.03 21.9869Z" fill="#FFC000"/></g><g clip-path="url(#clip1)"><path d="M1234.03 220.869 1133.03 220.869 1133.03 202.879 1234.03 202.879ZM1234.03 175.895 1043.03 175.895 1043.03 157.906 1234.03 157.906ZM1234.03 130.922 1043.03 130.922 1043.03 111.933 1234.03 111.933ZM1234.03 84.9494 1043.03 84.9494 1043.03 66.9601 1234.03 66.9601ZM1234.03 39.9762 1154.03 39.9762 1154.03 21.9869 1234.03 21.9869Z" fill="#43682B"/></g><g><path d="M826 234.854 1234 234.854" stroke="#000000" stroke-width="2.00027" stroke-linejoin="round" stroke-miterlimit="10" fill="none" fill-rule="evenodd"/></g><g><path d="M0 0 0.000104935 226.859" stroke="#000000" stroke-width="1.99902" stroke-linejoin="round" stroke-miterlimit="10" fill="none" fill-rule="evenodd" transform="matrix(1.00062 0 0 -1 826 234.854)"/></g><g><path d="M936.5 203.54C936.5 201.24 938.366 199.376 940.667 199.376L974.333 199.376C976.635 199.376 978.5 201.24 978.5 203.54L978.5 220.196C978.5 222.496 976.635 224.36 974.333 224.36L940.667 224.36C938.366 224.36 936.5 222.496 936.5 220.196Z" stroke="#BFBFBF" stroke-width="1.00013" stroke-linejoin="round" stroke-miterlimit="10" fill="#FFFFFF" fill-rule="evenodd"/></g><g><g><text fill="#595959" font-family="Arial,Arial_MSFontService,sans-serif" font-weight="700" font-size="16" transform="matrix(1 0 0 0.999377 941.808 218)">64.6</text></g></g><g><path d="M836.5 158.568C836.5 156.268 838.366 154.404 840.667 154.404L873.333 154.404C875.635 154.404 877.5 156.268 877.5 158.568L877.5 175.224C877.5 177.524 875.635 179.388 873.333 179.388L840.667 179.388C838.366 179.388 836.5 177.524 836.5 175.224Z" stroke="#BFBFBF" stroke-width="1.00013" stroke-linejoin="round" stroke-miterlimit="10" fill="#FFFFFF" fill-rule="evenodd"/></g><g><g><text fill="#595959" font-family="Arial,Arial_MSFontService,sans-serif" font-weight="700" font-size="16" transform="matrix(1 0 0 0.999377 841.421 172)">15.4</text></g></g><g><path d="M832.5 67.6246C832.5 65.3248 834.366 63.4604 836.667 63.4604L870.333 63.4604C872.635 63.4604 874.5 65.3248 874.5 67.6246L874.5 84.2807C874.5 86.5805 872.635 88.4448 870.333 88.4448L836.667 88.4448C834.366 88.4448 832.5 86.5805 832.5 84.2807Z" stroke="#BFBFBF" stroke-width="1.00013" stroke-linejoin="round" stroke-miterlimit="10" fill="#FFFFFF" fill-rule="evenodd"/></g><g><g><text fill="#595959" font-family="Arial,Arial_MSFontService,sans-serif" font-weight="700" font-size="16" transform="matrix(1 0 0 0.999377 838.156 82)">13.8</text></g></g><g><path d="M970.5 22.6526C970.5 20.3528 972.366 18.4885 974.667 18.4885L994.333 18.4885C996.634 18.4885 998.5 20.3528 998.5 22.6526L998.5 39.3087C998.5 41.6085 996.634 43.4729 994.333 43.4729L974.667 43.4729C972.366 43.4729 970.5 41.6085 970.5 39.3087Z" stroke="#BFBFBF" stroke-width="1.00013" stroke-linejoin="round" stroke-miterlimit="10" fill="#FFFFFF" fill-rule="evenodd"/></g><g><g><text fill="#595959" font-family="Arial,Arial_MSFontService,sans-serif" font-weight="700" font-size="16" transform="matrix(1 0 0 0.999377 975.803 37)">78</text></g></g><g><path d="M1092.5 203.54C1092.5 201.24 1094.37 199.376 1096.67 199.376L1120.33 199.376C1122.63 199.376 1124.5 201.24 1124.5 203.54L1124.5 220.196C1124.5 222.496 1122.63 224.36 1120.33 224.36L1096.67 224.36C1094.37 224.36 1092.5 222.496 1092.5 220.196Z" stroke="#BFBFBF" stroke-width="1.00013" stroke-linejoin="round" stroke-miterlimit="10" fill="#FFFFFF" fill-rule="evenodd"/></g><g><g><text fill="#595959" font-family="Arial,Arial_MSFontService,sans-serif" font-weight="700" font-size="16" transform="matrix(1 0 0 0.999377 1097.64 218)">9.6</text></g></g><g><path d="M949.5 158.568C949.5 156.268 951.366 154.404 953.667 154.404L973.333 154.404C975.635 154.404 977.5 156.268 977.5 158.568L977.5 175.224C977.5 177.524 975.635 179.388 973.333 179.388L953.667 179.388C951.366 179.388 949.5 177.524 949.5 175.224Z" stroke="#BFBFBF" stroke-width="1.00013" stroke-linejoin="round" stroke-miterlimit="10" fill="#FFFFFF" fill-rule="evenodd"/></g><g><g><text fill="#595959" font-family="Arial,Arial_MSFontService,sans-serif" font-weight="700" font-size="16" transform="matrix(1 0 0 0.999377 954.991 172)">37</text></g></g><g><path d="M922.5 113.429C922.5 111.222 924.291 109.432 926.5 109.432L960.5 109.432C962.709 109.432 964.5 111.222 964.5 113.429L964.5 129.419C964.5 131.627 962.709 133.417 960.5 133.417L926.5 133.417C924.291 133.417 922.5 131.627 922.5 129.419Z" stroke="#BFBFBF" stroke-width="1.00013" stroke-linejoin="round" stroke-miterlimit="10" fill="#FFFFFF" fill-rule="evenodd"/></g><g><g><text fill="#595959" font-family="Arial,Arial_MSFontService,sans-serif" font-weight="700" font-size="16" transform="matrix(1 0 0 0.999377 927.933 127)">48.6</text></g></g><g><path d="M937.5 67.6246C937.5 65.3248 939.365 63.4604 941.667 63.4604L974.333 63.4604C976.634 63.4604 978.5 65.3248 978.5 67.6246L978.5 84.2806C978.5 86.5804 976.634 88.4447 974.333 88.4447L941.667 88.4447C939.365 88.4447 937.5 86.5804 937.5 84.2806Z" stroke="#BFBFBF" stroke-width="1.00013" stroke-linejoin="round" stroke-miterlimit="10" fill="#FFFFFF" fill-rule="evenodd"/></g><g><g><text fill="#595959" font-family="Arial,Arial_MSFontService,sans-serif" font-weight="700" font-size="16" transform="matrix(1 0 0 0.999377 942.624 82)">37.4</text></g></g><g><path d="M1162.5 203.54C1162.5 201.24 1164.37 199.376 1166.67 199.376L1200.33 199.376C1202.63 199.376 1204.5 201.24 1204.5 203.54L1204.5 220.196C1204.5 222.496 1202.63 224.36 1200.33 224.36L1166.67 224.36C1164.37 224.36 1162.5 222.496 1162.5 220.196Z" stroke="#BFBFBF" stroke-width="1.00013" stroke-linejoin="round" stroke-miterlimit="10" fill="#FFFFFF" fill-rule="evenodd"/></g><g><g><text fill="#595959" font-family="Arial,Arial_MSFontService,sans-serif" font-weight="700" font-size="16" transform="matrix(1 0 0 0.999377 1167.88 218)">24.6</text></g></g><g><path d="M1112 156.236C1112 153.292 1114.39 150.906 1117.33 150.906L1158.67 150.906C1161.61 150.906 1164 153.292 1164 156.236L1164 177.556C1164 180.5 1161.61 182.886 1158.67 182.886L1117.33 182.886C1114.39 182.886 1112 180.5 1112 177.556Z" stroke="#C00000" stroke-width="4.00053" stroke-linejoin="round" stroke-miterlimit="10" fill="#FFFFFF" fill-rule="evenodd"/></g><g><g><text fill="#C00000" font-family="Arial,Arial_MSFontService,sans-serif" font-weight="700" font-size="21" transform="matrix(1 0 0 0.999377 1117.35 174)">46.8</text></g></g><g><path d="M1117.5 113.429C1117.5 111.222 1119.29 109.432 1121.5 109.432L1155.5 109.432C1157.71 109.432 1159.5 111.222 1159.5 113.429L1159.5 129.419C1159.5 131.627 1157.71 133.417 1155.5 133.417L1121.5 133.417C1119.29 133.417 1117.5 131.627 1117.5 129.419Z" stroke="#BFBFBF" stroke-width="1.00013" stroke-linejoin="round" stroke-miterlimit="10" fill="#FFFFFF" fill-rule="evenodd"/></g><g><g><text fill="#595959" font-family="Arial,Arial_MSFontService,sans-serif" font-weight="700" font-size="16" transform="matrix(1 0 0 0.999377 1122.99 127)">46.6</text></g></g><g><path d="M1117.5 67.6246C1117.5 65.3248 1119.37 63.4604 1121.67 63.4604L1155.33 63.4604C1157.63 63.4604 1159.5 65.3248 1159.5 67.6246L1159.5 84.2807C1159.5 86.5805 1157.63 88.4448 1155.33 88.4448L1121.67 88.4448C1119.37 88.4448 1117.5 86.5805 1117.5 84.2807Z" stroke="#BFBFBF" stroke-width="1.00013" stroke-linejoin="round" stroke-miterlimit="10" fill="#FFFFFF" fill-rule="evenodd"/></g><g><g><text fill="#595959" font-family="Arial,Arial_MSFontService,sans-serif" font-weight="700" font-size="16" transform="matrix(1 0 0 0.999377 1122.99 82)">46.6</text></g></g><g><path d="M1173.5 22.6526C1173.5 20.3528 1175.37 18.4885 1177.67 18.4885L1210.33 18.4885C1212.63 18.4885 1214.5 20.3528 1214.5 22.6526L1214.5 39.3086C1214.5 41.6084 1212.63 43.4728 1210.33 43.4728L1177.67 43.4728C1175.37 43.4728 1173.5 41.6084 1173.5 39.3086Z" stroke="#BFBFBF" stroke-width="1.00013" stroke-linejoin="round" stroke-miterlimit="10" fill="#FFFFFF" fill-rule="evenodd"/></g><g><g><text fill="#595959" font-family="Arial,Arial_MSFontService,sans-serif" font-weight="700" font-size="16" transform="matrix(1 0 0 0.999377 1178.49 37)">19.4</text></g></g><g><text font-family="Arial,Arial_MSFontService,sans-serif" font-weight="700" font-size="16" transform="matrix(1 0 0 0.999377 813.993 258)">0%</text></g><g><text font-family="Arial,Arial_MSFontService,sans-serif" font-weight="700" font-size="16" transform="matrix(1 0 0 0.999377 891.171 258)">20%</text></g><g><text font-family="Arial,Arial_MSFontService,sans-serif" font-weight="700" font-size="16" transform="matrix(1 0 0 0.999377 972.787 258)">40%</text></g><g><text font-family="Arial,Arial_MSFontService,sans-serif" font-weight="700" font-size="16" transform="matrix(1 0 0 0.999377 1054.4 258)">60%</text></g><g><text font-family="Arial,Arial_MSFontService,sans-serif" font-weight="700" font-size="16" transform="matrix(1 0 0 0.999377 1136.02 258)">80%</text></g><g><text font-family="Arial,Arial_MSFontService,sans-serif" font-weight="700" font-size="16" transform="matrix(1 0 0 0.999377 1213.2 258)">100%</text></g><g><text font-family="Arial,Arial_MSFontService,sans-serif" font-weight="700" font-size="16" transform="matrix(1 0 0 0.999377 640.22 217)">+VLG.-Mixed-LoRA</text></g><g><text font-family="Arial,Arial_MSFontService,sans-serif" font-weight="700" font-size="16" transform="matrix(1 0 0 0.999377 639.313 171)">+VLG.-Mixed</text></g><g><text font-family="Arial,Arial_MSFontService,sans-serif" font-weight="700" font-size="16" transform="matrix(1 0 0 0.999377 639.347 126)">+VLG.-Post-hoc-LoRA</text></g><g><text font-family="Arial,Arial_MSFontService,sans-serif" font-weight="700" font-size="16" transform="matrix(1 0 0 0.999377 642.873 81)">+VLG.-Post-hoc</text></g><g><text font-family="Arial,Arial_MSFontService,sans-serif" font-weight="700" font-size="16" transform="matrix(1 0 0 0.999377 628.211 35)">LLaVA-v1.5-13B</text></g><g><text font-family="Arial,Arial_MSFontService,sans-serif" font-weight="700" font-size="18" transform="matrix(1 0 0 0.999377 957.54 278)">Percentage</text></g><g><rect x="877" y="289.819" width="8" height="7.99493" fill="#70AD47"/></g><g><g><text font-family="Arial,Arial_MSFontService,sans-serif" font-weight="700" font-size="16" transform="matrix(1 0 0 0.999377 888.92 299)">T1 (↓)</text></g></g><g><rect x="944" y="289.819" width="8" height="7.99493" fill="#5B9BD5"/></g><g><g><text font-family="Arial,Arial_MSFontService,sans-serif" font-weight="700" font-size="16" transform="matrix(1 0 0 0.999377 955.865 299)">T2 (↓)</text></g></g><g><rect x="1011" y="289.819" width="8" height="7.99493" fill="#FFC000"/></g><g><g><text font-family="Arial,Arial_MSFontService,sans-serif" font-weight="700" font-size="16" transform="matrix(1 0 0 0.999377 1022.81 299)">T3 (↓)</text></g></g><g><rect x="1078" y="289.819" width="8" height="7.99493" fill="#43682B"/></g><g><g><text font-family="Arial,Arial_MSFontService,sans-serif" font-weight="700" font-size="16" transform="matrix(1 0 0 0.999377 1089.76 299)">T4 (↑)</text></g></g><text font-family="Arial,Arial_MSFontService,sans-serif" font-weight="700" font-size="19" transform="matrix(1 0 0 0.999377 365.382 333)">(a)</text><text font-family="Arial,Arial_MSFontService,sans-serif" font-weight="700" font-size="19" transform="matrix(1 0 0 0.999377 993.779 333)">(b)</text></g></svg>