<svg width="605" height="286" xmlns="http://www.w3.org/2000/svg" xmlns:xlink="http://www.w3.org/1999/xlink" overflow="hidden"><defs><clipPath id="clip0"><rect x="0" y="0" width="605" height="286"/></clipPath></defs><g clip-path="url(#clip0)"><rect x="0" y="0" width="605" height="285.588" fill="#FFFFFF"/><g><path d="M236.491 4.49356 236.491 197.216M323.487 4.49356 323.487 197.216M410.484 4.49356 410.484 197.216M497.48 4.49356 497.48 197.216M584.5 4.49356 584.5 197.216" stroke="#D9D9D9" stroke-width="1.00028" stroke-linejoin="round" stroke-miterlimit="10" fill="none"/></g><g><path d="M210.992 182.729 149 182.729 149 163.757 210.992 163.757ZM180.993 134.8 149 134.8 149 114.83 180.993 114.83ZM192.992 85.8728 149 85.8728 149 66.9009 192.992 66.9009ZM169.993 37.9438 149 37.9438 149 18.9719 169.993 18.9719Z" fill="#70AD47"/></g><g><path d="M413.984 182.729 210.992 182.729 210.992 163.757 413.984 163.757ZM449.982 134.8 180.993 134.8 180.993 114.83 449.982 114.83ZM352.986 85.8728 192.992 85.8728 192.992 66.9009 352.986 66.9009ZM384.985 37.9438 169.993 37.9438 169.993 18.9719 384.985 18.9719Z" fill="#5B9BD5"/></g><g><path d="M415.984 182.729 413.984 182.729 413.984 163.757 415.984 163.757ZM455.982 134.8 449.982 134.8 449.982 114.83 455.982 114.83ZM355.986 85.8728 352.986 85.8728 352.986 66.9009 355.986 66.9009ZM387.985 37.9438 384.985 37.9438 384.985 18.9719 387.985 18.9719Z" fill="#FFC000"/></g><g><path d="M584.977 182.729 415.984 182.729 415.984 163.757 584.977 163.757ZM584.977 134.8 455.982 134.8 455.982 114.83 584.977 114.83ZM584.977 85.8728 355.986 85.8728 355.986 66.9009 584.977 66.9009ZM584.977 37.9438 387.985 37.9438 387.985 18.9719 584.977 18.9719Z" fill="#43682B"/></g><g><path d="M149 197.715 585 197.715" stroke="#000000" stroke-width="2.00055" stroke-linejoin="round" stroke-miterlimit="10" fill="none" fill-rule="evenodd"/></g><g><path d="M0 0 0.000104865 193.721" stroke="#000000" stroke-width="1.99767" stroke-linejoin="round" stroke-miterlimit="10" fill="none" fill-rule="evenodd" transform="matrix(1.00144 0 0 -1 149 197.715)"/></g><g><path d="M159.5 164.43C159.5 162.132 161.366 160.269 163.667 160.269L196.333 160.269C198.634 160.269 200.5 162.132 200.5 164.43L200.5 181.072C200.5 183.37 198.634 185.233 196.333 185.233L163.667 185.233C161.366 185.233 159.5 183.37 159.5 181.072Z" stroke="#BFBFBF" stroke-width="1.00028" stroke-linejoin="round" stroke-miterlimit="10" fill="#FFFFFF" fill-rule="evenodd"/></g><g><g><text fill="#595959" font-family="Arial,Arial_MSFontService,sans-serif" font-weight="700" font-size="16" transform="matrix(1 0 0 0.998561 164.599 179)">14.2</text></g></g><g><path d="M157.5 68.5679C157.5 66.27 159.365 64.4071 161.667 64.4071L180.333 64.4071C182.634 64.4071 184.5 66.27 184.5 68.5679L184.5 85.2105C184.5 87.5084 182.634 89.3712 180.333 89.3712L161.667 89.3712C159.365 89.3712 157.5 87.5084 157.5 85.2105Z" stroke="#BFBFBF" stroke-width="1.00028" stroke-linejoin="round" stroke-miterlimit="10" fill="#FFFFFF" fill-rule="evenodd"/></g><g><g><text fill="#595959" font-family="Arial,Arial_MSFontService,sans-serif" font-weight="700" font-size="16" transform="matrix(1 0 0 0.998561 162.112 82)">10</text></g></g><g><path d="M291.5 164.43C291.5 162.132 293.366 160.269 295.667 160.269L329.333 160.269C331.634 160.269 333.5 162.132 333.5 164.43L333.5 181.072C333.5 183.37 331.634 185.233 329.333 185.233L295.667 185.233C293.366 185.233 291.5 183.37 291.5 181.072Z" stroke="#BFBFBF" stroke-width="1.00028" stroke-linejoin="round" stroke-miterlimit="10" fill="#FFFFFF" fill-rule="evenodd"/></g><g><g><text fill="#595959" font-family="Arial,Arial_MSFontService,sans-serif" font-weight="700" font-size="16" transform="matrix(1 0 0 0.998561 296.952 179)">46.6</text></g></g><g><path d="M294.5 116.499C294.5 114.201 296.366 112.338 298.667 112.338L331.333 112.338C333.634 112.338 335.5 114.201 335.5 116.499L335.5 133.141C335.5 135.439 333.634 137.302 331.333 137.302L298.667 137.302C296.366 137.302 294.5 135.439 294.5 133.141Z" stroke="#BFBFBF" stroke-width="1.00028" stroke-linejoin="round" stroke-miterlimit="10" fill="#FFFFFF" fill-rule="evenodd"/></g><g><g><text fill="#595959" font-family="Arial,Arial_MSFontService,sans-serif" font-weight="700" font-size="16" transform="matrix(1 0 0 0.998561 299.564 130)">61.8</text></g></g><g><path d="M252.5 68.5679C252.5 66.27 254.366 64.4071 256.667 64.4071L289.333 64.4071C291.634 64.4071 293.5 66.27 293.5 68.5679L293.5 85.2104C293.5 87.5084 291.634 89.3712 289.333 89.3712L256.667 89.3712C254.366 89.3712 252.5 87.5084 252.5 85.2104Z" stroke="#BFBFBF" stroke-width="1.00028" stroke-linejoin="round" stroke-miterlimit="10" fill="#FFFFFF" fill-rule="evenodd"/></g><g><g><text fill="#595959" font-family="Arial,Arial_MSFontService,sans-serif" font-weight="700" font-size="16" transform="matrix(1 0 0 0.998561 257.333 82)">36.8</text></g></g><g><path d="M256.5 19.6385C256.5 17.3405 258.365 15.4777 260.667 15.4777L294.333 15.4777C296.634 15.4777 298.5 17.3405 298.5 19.6385L298.5 36.2809C298.5 38.5788 296.634 40.4417 294.333 40.4417L260.667 40.4417C258.365 40.4417 256.5 38.5788 256.5 36.2809Z" stroke="#BFBFBF" stroke-width="1.00028" stroke-linejoin="round" stroke-miterlimit="10" fill="#FFFFFF" fill-rule="evenodd"/></g><g><g><text fill="#595959" font-family="Arial,Arial_MSFontService,sans-serif" font-weight="700" font-size="16" transform="matrix(1 0 0 0.998561 262.122 34)">49.4</text></g></g><g><path d="M479.5 164.43C479.5 162.132 481.366 160.269 483.667 160.269L516.333 160.269C518.635 160.269 520.5 162.132 520.5 164.43L520.5 181.072C520.5 183.37 518.635 185.233 516.333 185.233L483.667 185.233C481.366 185.233 479.5 183.37 479.5 181.072Z" stroke="#BFBFBF" stroke-width="1.00028" stroke-linejoin="round" stroke-miterlimit="10" fill="#FFFFFF" fill-rule="evenodd"/></g><g><g><text fill="#595959" font-family="Arial,Arial_MSFontService,sans-serif" font-weight="700" font-size="16" transform="matrix(1 0 0 0.998561 484.596 179)">38.8</text></g></g><g><path d="M499.5 116.499C499.5 114.201 501.366 112.338 503.667 112.338L537.333 112.338C539.635 112.338 541.5 114.201 541.5 116.499L541.5 133.141C541.5 135.439 539.635 137.302 537.333 137.302L503.667 137.302C501.366 137.302 499.5 135.439 499.5 133.141Z" stroke="#BFBFBF" stroke-width="1.00028" stroke-linejoin="round" stroke-miterlimit="10" fill="#FFFFFF" fill-rule="evenodd"/></g><g><g><text fill="#595959" font-family="Arial,Arial_MSFontService,sans-serif" font-weight="700" font-size="16" transform="matrix(1 0 0 0.998561 504.623 130)">29.6</text></g></g><g><path d="M444 66.238C444 63.2966 446.388 60.9122 449.333 60.9122L491.667 60.9122C494.612 60.9122 497 63.2966 497 66.238L497 87.5404C497 90.4817 494.612 92.8661 491.667 92.8661L449.333 92.8661C446.388 92.8661 444 90.4817 444 87.5404Z" stroke="#C00000" stroke-width="4.0011" stroke-linejoin="round" stroke-miterlimit="10" fill="#FFFFFF" fill-rule="evenodd"/></g><g><g><text fill="#C00000" font-family="Arial,Arial_MSFontService,sans-serif" font-weight="700" font-size="21" transform="matrix(1 0 0 0.998561 449.317 84)">52.6</text></g></g><g><path d="M465.5 19.6385C465.5 17.3405 467.366 15.4777 469.667 15.4777L503.333 15.4777C505.635 15.4777 507.5 17.3405 507.5 19.6385L507.5 36.2809C507.5 38.5788 505.635 40.4417 503.333 40.4417L469.667 40.4417C467.366 40.4417 465.5 38.5788 465.5 36.2809Z" stroke="#BFBFBF" stroke-width="1.00028" stroke-linejoin="round" stroke-miterlimit="10" fill="#FFFFFF" fill-rule="evenodd"/></g><g><g><text fill="#595959" font-family="Arial,Arial_MSFontService,sans-serif" font-weight="700" font-size="16" transform="matrix(1 0 0 0.998561 470.664 34)">45.2</text></g></g><g><text font-family="Arial,Arial_MSFontService,sans-serif" font-weight="700" font-size="16" transform="matrix(1 0 0 0.998561 137.683 221)">0%</text></g><g><text font-family="Arial,Arial_MSFontService,sans-serif" font-weight="700" font-size="16" transform="matrix(1 0 0 0.998561 220.319 221)">20%</text></g><g><text font-family="Arial,Arial_MSFontService,sans-serif" font-weight="700" font-size="16" transform="matrix(1 0 0 0.998561 307.392 221)">40%</text></g><g><text font-family="Arial,Arial_MSFontService,sans-serif" font-weight="700" font-size="16" transform="matrix(1 0 0 0.998561 394.466 221)">60%</text></g><g><text font-family="Arial,Arial_MSFontService,sans-serif" font-weight="700" font-size="16" transform="matrix(1 0 0 0.998561 481.54 221)">80%</text></g><g><text font-family="Arial,Arial_MSFontService,sans-serif" font-weight="700" font-size="16" transform="matrix(1 0 0 0.998561 564.176 221)">100%</text></g><g><text font-family="Arial,Arial_MSFontService,sans-serif" font-weight="700" font-size="16" transform="matrix(1 0 0 0.998561 17.0535 178)">+Prompt Prefix</text></g><g><text font-family="Arial,Arial_MSFontService,sans-serif" font-weight="700" font-size="16" transform="matrix(1 0 0 0.998561 1.56232 129)">Claude-3-Haiku</text></g><g><text font-family="Arial,Arial_MSFontService,sans-serif" font-weight="700" font-size="16" transform="matrix(1 0 0 0.998561 17.0535 81)">+Prompt Prefix</text></g><g><text font-family="Arial,Arial_MSFontService,sans-serif" font-weight="700" font-size="16" transform="matrix(1 0 0 0.998561 2.44225 33)">GPT-4V</text></g><g><text font-family="Arial,Arial_MSFontService,sans-serif" font-weight="700" font-size="18" transform="matrix(1 0 0 0.998561 288.371 250)">Percentage</text></g><g><rect x="206" y="269.611" width="8" height="7.98849" fill="#70AD47"/></g><g><g><text font-family="Arial,Arial_MSFontService,sans-serif" font-weight="700" font-size="16" transform="matrix(1 0 0 0.998561 217.909 278)">T1 (↓)</text></g></g><g><rect x="273" y="269.611" width="8" height="7.98849" fill="#5B9BD5"/></g><g><g><text font-family="Arial,Arial_MSFontService,sans-serif" font-weight="700" font-size="16" transform="matrix(1 0 0 0.998561 284.864 278)">T2 (↓)</text></g></g><g><rect x="340" y="269.611" width="8" height="7.98849" fill="#FFC000"/></g><g><g><text font-family="Arial,Arial_MSFontService,sans-serif" font-weight="700" font-size="16" transform="matrix(1 0 0 0.998561 351.819 278)">T3 (↓)</text></g></g><g><rect x="407" y="269.611" width="8" height="7.98849" fill="#43682B"/></g><g><g><text font-family="Arial,Arial_MSFontService,sans-serif" font-weight="700" font-size="16" transform="matrix(1 0 0 0.998561 418.775 278)">T4 (↑)</text></g></g></g></svg>